<svg width="315" height="225" viewBox="0 0 315 225" fill="none" xmlns="http://www.w3.org/2000/svg">
<g filter="url(#filter0_ii_4972_11721)">
<path d="M1.39876e-05 80C9.09151e-06 51.9974 6.64344e-06 37.9961 5.44968 27.3005C10.2433 17.8924 17.8924 10.2433 27.3005 5.44967C37.9961 -6.64344e-06 51.9974 -9.09151e-06 80 -1.39876e-05L235 -4.10887e-05C263.003 -4.59848e-05 277.004 -4.84329e-05 287.699 5.44962C297.108 10.2433 304.757 17.8923 309.55 27.3004C315 37.996 315 51.9973 315 80L315 145C315 173.003 315 187.004 309.55 197.7C304.757 207.108 297.108 214.757 287.7 219.55C277.004 225 263.003 225 235 225L80 225C51.9974 225 37.9961 225 27.3005 219.55C17.8924 214.757 10.2434 207.108 5.44971 197.7C3.26968e-05 187.004 3.02488e-05 173.003 2.53526e-05 145L1.39876e-05 80Z" fill="url(#paint0_linear_4972_11721)"/>
</g>
<path opacity="0.05" fill-rule="evenodd" clip-rule="evenodd" d="M180.699 224.991L108.151 224.991C100.232 219.873 92.8079 213.139 85.9228 204.987C76.8327 194.225 78.1779 178.129 88.9272 169.037C99.6766 159.945 115.76 161.299 124.85 172.061C132.081 180.623 137.78 183.682 141.118 184.736C144.18 185.702 146.605 185.441 148.921 184.497C154.856 182.077 160.752 174.548 162.063 167.233C165.729 146.772 178.228 122.92 196.972 105.483C216.347 87.4585 244.843 74.3161 278.726 82.4527C293.238 85.9377 305.196 91.7142 315 98.6544L315 144.991C315 172.994 315 186.995 309.55 197.691C309.527 197.736 309.504 197.782 309.48 197.828L307.142 175.018C307.119 174.883 307.085 174.691 307.037 174.447C306.879 173.632 306.58 172.266 306.08 170.506C305.067 166.938 303.306 162.047 300.402 156.935C294.792 147.059 285.102 136.447 266.853 132.065C253.726 128.913 242.055 133.217 231.69 142.86C220.692 153.091 213.878 167.127 212.242 176.261C208.989 194.416 197.784 213.302 180.699 224.991Z" fill="black"/>
<g clip-path="url(#clip0_4972_11721)">
<mask id="mask0_4972_11721" style="mask-type:alpha" maskUnits="userSpaceOnUse" x="176" y="78" width="161" height="160">
<rect x="176.808" y="78" width="160" height="160" fill="#C4C4C4"/>
</mask>
<g mask="url(#mask0_4972_11721)">
<g filter="url(#filter1_f_4972_11721)">
<path d="M282.81 224.427L201.808 216.142L239.563 207.857L321.197 216.299L282.81 224.427Z" fill="#2F76FF"/>
</g>
<g filter="url(#filter2_f_4972_11721)">
<path d="M297.138 227.413L251.586 222.969L272.818 218.524L318.725 223.053L297.138 227.413Z" fill="#677FFF"/>
</g>
<path d="M249.909 100.241L295.56 104.01C306.624 104.924 315.138 114.17 315.138 125.271V158.788V194.435C315.138 206.334 306.715 216.569 295.038 218.858L283.012 221.216C280.965 221.618 278.873 221.74 276.793 221.58L270.952 221.131L226.767 210.775L217.808 103.858L230.023 101.399C236.564 100.082 243.259 99.6921 249.909 100.241Z" fill="url(#paint1_linear_4972_11721)"/>
<path d="M205.364 193.872V120.422C205.364 110.262 214.103 102.304 224.218 103.253L274.393 107.956C285.355 108.984 293.735 118.186 293.735 129.197V162.931V201.728C293.735 213.249 283.825 222.273 272.354 221.198L226.318 216.882C214.442 215.769 205.364 205.8 205.364 193.872Z" fill="url(#paint2_linear_4972_11721)"/>
<path d="M226.181 117.262L240.228 118.37C243.633 118.638 246.253 121.354 246.253 124.616V134.463V149.259C246.253 152.755 243.661 155.762 240.068 156.434L236.367 157.127C235.737 157.245 235.094 157.281 234.454 157.234L232.656 157.102L219.06 154.059L216.304 118.325L220.062 117.602C222.075 117.215 224.135 117.101 226.181 117.262Z" fill="url(#paint3_linear_4972_11721)"/>
<path d="M212.475 149.093V123.191C212.475 120.206 215.164 117.868 218.276 118.147L233.715 119.529C237.088 119.831 239.667 122.534 239.667 125.769V135.68V151.401C239.667 154.786 236.618 157.437 233.088 157.121L218.922 155.853C215.268 155.526 212.475 152.597 212.475 149.093Z" fill="url(#paint4_linear_4972_11721)"/>
<path d="M219.586 137.102L223.853 142.08L232.386 134.969" stroke="white" stroke-width="8.06026" stroke-linecap="round" stroke-linejoin="round"/>
<path d="M226.181 163.484L240.228 164.591C243.633 164.86 246.253 167.576 246.253 170.838V180.685V195.48C246.253 198.976 243.661 201.983 240.068 202.656L236.367 203.349C235.737 203.467 235.094 203.502 234.454 203.455L232.656 203.323L219.06 200.281L216.304 164.547L220.062 163.824C222.075 163.437 224.135 163.323 226.181 163.484Z" fill="url(#paint5_linear_4972_11721)"/>
<path d="M212.475 195.315V169.412C212.475 166.428 215.164 164.09 218.276 164.368L233.715 165.75C237.088 166.052 239.667 168.756 239.667 171.99V181.901V197.623C239.667 201.007 236.618 203.659 233.088 203.343L218.922 202.075C215.268 201.748 212.475 198.819 212.475 195.315Z" fill="url(#paint6_linear_4972_11721)"/>
<path d="M219.586 183.324L223.853 188.302L232.386 181.19" stroke="white" stroke-width="8.06026" stroke-linecap="round" stroke-linejoin="round"/>
<path d="M265.394 120.818L279.545 121.925C282.975 122.194 285.614 124.91 285.614 128.172V138.019V152.814C285.614 156.31 283.003 159.317 279.383 159.99L275.655 160.683C275.021 160.801 274.372 160.836 273.727 160.789L271.917 160.657L258.22 157.615L255.443 121.88L259.229 121.158C261.257 120.771 263.332 120.657 265.394 120.818Z" fill="url(#paint7_linear_4972_11721)"/>
<path d="M251.585 152.649V126.746C251.585 123.762 254.294 121.424 257.43 121.702L272.984 123.084C276.382 123.386 278.98 126.09 278.98 129.324V139.235V154.957C278.98 158.341 275.908 160.993 272.352 160.677L258.081 159.409C254.399 159.082 251.585 156.153 251.585 152.649Z" fill="url(#paint8_linear_4972_11721)"/>
<path d="M260.474 145.859L269.807 136.525" stroke="white" stroke-width="8.06026" stroke-linecap="round" stroke-linejoin="round"/>
<path d="M260.474 135.858L269.808 146.525" stroke="white" stroke-width="8.06026" stroke-linecap="round" stroke-linejoin="round"/>
<path d="M297.3 203.082L300.467 203.36C308.728 204.083 315.424 211.374 315.423 219.644V221.552C315.423 223.973 313.674 225.955 311.412 226.362C311.18 226.441 310.941 226.504 310.697 226.548C310.467 226.627 310.229 226.689 309.985 226.733C309.757 226.811 309.52 226.873 309.278 226.917C309.045 226.997 308.803 227.06 308.556 227.105C308.332 227.181 308.1 227.242 307.863 227.286C307.628 227.367 307.384 227.431 307.134 227.476C306.902 227.556 306.662 227.618 306.417 227.662C306.19 227.739 305.956 227.801 305.716 227.844C305.486 227.923 305.248 227.986 305.004 228.03C304.774 228.109 304.536 228.172 304.293 228.216C303.667 228.431 302.986 228.522 302.28 228.461L264.839 225.181C262.319 224.959 260.384 222.847 260.384 220.313V217.55C260.384 210.869 264.755 205.592 270.791 204.192C271.024 204.125 271.26 204.063 271.498 204.008C271.73 203.941 271.964 203.88 272.201 203.825C272.44 203.755 272.683 203.692 272.928 203.635C273.165 203.567 273.405 203.504 273.647 203.448C273.874 203.383 274.103 203.323 274.335 203.269C274.58 203.198 274.828 203.133 275.08 203.075C275.305 203.01 275.532 202.951 275.762 202.898C276.002 202.828 276.246 202.765 276.492 202.708C276.728 202.639 276.967 202.577 277.209 202.521C277.442 202.454 277.678 202.393 277.916 202.338C278.456 202.181 279.011 202.057 279.579 201.966C279.565 201.526 279.307 201.128 278.906 200.941C273.706 198.516 269.994 193.181 269.944 187.283C269.942 187.095 269.94 186.798 269.938 186.461C269.933 185.539 269.926 184.316 269.915 184.208C269.914 184.196 269.915 184.184 269.916 184.172C269.917 184.158 269.918 184.143 269.915 184.127C269.888 183.943 269.772 183.464 269.612 182.801C269.153 180.893 268.327 177.468 268.181 175.208C268.066 173.438 269.043 172.748 270.32 172.536C270.542 172.452 270.781 172.392 271.032 172.35C271.253 172.268 271.491 172.208 271.741 172.166C271.963 172.082 272.204 172.021 272.456 171.979C272.678 171.895 272.919 171.835 273.171 171.793C273.292 171.748 273.418 171.709 273.548 171.677C273.577 171.6 273.599 171.519 273.614 171.434C273.891 169.83 274.677 168.226 275.658 167.856C275.942 167.749 276.361 167.614 276.889 167.497C277.096 167.434 277.334 167.371 277.599 167.312C277.804 167.25 278.04 167.187 278.303 167.128C278.511 167.065 278.752 167.001 279.021 166.941C279.231 166.878 279.472 166.813 279.742 166.753C279.946 166.692 280.18 166.63 280.441 166.571C280.653 166.507 280.899 166.442 281.174 166.381C281.374 166.321 281.604 166.26 281.86 166.202C282.072 166.138 282.317 166.072 282.591 166.011C282.8 165.948 283.04 165.884 283.309 165.825C283.516 165.763 283.753 165.699 284.019 165.64C285.603 165.164 288.999 164.61 292.717 166.624C293.758 167.188 294.812 167.795 295.846 168.389C298.981 170.192 301.931 171.888 303.78 171.979C304.631 172.02 305.333 171.991 305.923 171.908C307.049 171.748 307.983 172.962 307.513 173.977C307.187 174.681 306.835 175.251 306.628 175.566C306.507 175.75 306.435 175.963 306.418 176.191L305.522 184.563V187.558C305.522 193.314 302.023 197.944 297.039 199.613C296.557 199.774 296.228 200.221 296.228 200.73V201.911C296.228 202.521 296.694 203.029 297.3 203.082Z" fill="url(#paint9_linear_4972_11721)"/>
<mask id="mask1_4972_11721" style="mask-type:alpha" maskUnits="userSpaceOnUse" x="260" y="165" width="56" height="64">
<path d="M297.3 203.082L300.467 203.36C308.728 204.083 315.424 211.374 315.423 219.644V221.552C315.423 223.973 313.674 225.955 311.412 226.362C311.18 226.441 310.941 226.504 310.697 226.548C310.467 226.627 310.229 226.689 309.985 226.733C309.757 226.811 309.52 226.873 309.278 226.917C309.045 226.997 308.803 227.06 308.556 227.105C308.332 227.181 308.1 227.242 307.863 227.286C307.628 227.367 307.384 227.431 307.134 227.476C306.902 227.556 306.662 227.618 306.417 227.662C306.19 227.739 305.956 227.801 305.716 227.844C305.486 227.923 305.248 227.986 305.004 228.03C304.774 228.109 304.536 228.172 304.293 228.216C303.667 228.431 302.986 228.522 302.28 228.461L264.839 225.181C262.319 224.959 260.384 222.847 260.384 220.313V217.55C260.384 210.869 264.755 205.592 270.791 204.192C271.024 204.125 271.26 204.063 271.498 204.008C271.73 203.941 271.964 203.88 272.201 203.825C272.44 203.755 272.683 203.692 272.928 203.635C273.165 203.567 273.405 203.504 273.647 203.448C273.874 203.383 274.103 203.323 274.335 203.269C274.58 203.198 274.828 203.133 275.08 203.075C275.305 203.01 275.532 202.951 275.762 202.898C276.002 202.828 276.246 202.765 276.492 202.708C276.728 202.639 276.967 202.577 277.209 202.521C277.442 202.454 277.678 202.393 277.916 202.338C278.456 202.181 279.011 202.057 279.579 201.966C279.565 201.526 279.307 201.128 278.906 200.941C273.706 198.516 269.994 193.181 269.944 187.283C269.942 187.095 269.94 186.798 269.938 186.461C269.933 185.539 269.926 184.316 269.915 184.208C269.914 184.196 269.915 184.184 269.916 184.172C269.917 184.158 269.918 184.143 269.915 184.127C269.888 183.943 269.772 183.464 269.612 182.801C269.153 180.893 268.327 177.468 268.181 175.208C268.066 173.438 269.043 172.748 270.32 172.536C270.542 172.452 270.781 172.392 271.032 172.35C271.253 172.268 271.491 172.208 271.741 172.166C271.963 172.082 272.204 172.021 272.456 171.979C272.678 171.895 272.919 171.835 273.171 171.793C273.292 171.748 273.418 171.709 273.548 171.677C273.577 171.6 273.599 171.519 273.614 171.434C273.891 169.83 274.677 168.226 275.658 167.856C275.942 167.749 276.361 167.614 276.889 167.497C277.096 167.434 277.334 167.371 277.599 167.312C277.804 167.25 278.04 167.187 278.303 167.128C278.511 167.065 278.752 167.001 279.021 166.941C279.231 166.878 279.472 166.813 279.742 166.753C279.946 166.692 280.18 166.63 280.441 166.571C280.653 166.507 280.899 166.442 281.174 166.381C281.374 166.321 281.604 166.26 281.86 166.202C282.072 166.138 282.317 166.072 282.591 166.011C282.8 165.948 283.04 165.884 283.309 165.825C283.516 165.763 283.753 165.699 284.019 165.64C285.603 165.164 288.999 164.61 292.717 166.624C293.758 167.188 294.812 167.795 295.846 168.389C298.981 170.192 301.931 171.888 303.78 171.979C304.631 172.02 305.333 171.991 305.923 171.908C307.049 171.748 307.983 172.962 307.513 173.977C307.187 174.681 306.835 175.251 306.628 175.566C306.507 175.75 306.435 175.963 306.418 176.191L305.522 184.563V187.558C305.522 193.314 302.023 197.944 297.039 199.613C296.557 199.774 296.228 200.221 296.228 200.73V201.911C296.228 202.521 296.694 203.029 297.3 203.082Z" fill="url(#paint10_linear_4972_11721)"/>
</mask>
<g mask="url(#mask1_4972_11721)">
<path d="M290.311 205.877L299.352 203.165L307.037 199.097L309.749 183.727L295.736 186.439L288.955 200.001L276.749 204.069L287.146 205.877H290.311Z" fill="url(#paint11_linear_4972_11721)"/>
</g>
<g filter="url(#filter3_i_4972_11721)">
<path d="M292.629 205.399L289.463 205.122C288.856 205.069 288.39 204.56 288.39 203.95V202.769C288.39 202.26 288.719 201.813 289.201 201.652C294.185 199.983 297.684 195.353 297.684 189.597V186.602L298.581 178.23C298.597 178.002 298.669 177.789 298.79 177.605C298.998 177.29 299.349 176.72 299.675 176.016C300.145 175.001 299.211 173.788 298.086 173.947C297.495 174.031 296.793 174.059 295.942 174.018C293.483 173.897 289.078 170.938 284.879 168.663C280.678 166.389 276.889 167.392 275.658 167.855C274.677 168.226 273.891 169.83 273.614 171.433C273.5 172.096 272.928 172.54 272.246 172.489C270.208 172.338 268.011 172.602 268.181 175.208C268.378 178.252 269.808 183.413 269.915 184.127C269.92 184.155 269.913 184.18 269.915 184.207C269.929 184.356 269.938 186.583 269.944 187.282C269.994 193.18 273.706 198.516 278.906 200.941C279.318 201.133 279.58 201.549 279.58 202.004V202.972C279.58 203.662 278.99 204.204 278.303 204.144L275.342 203.884C267.081 203.161 260.384 209.28 260.384 217.55V220.313C260.384 222.846 262.319 224.959 264.839 225.181C264.839 225.181 265.114 225.217 268.394 225.492C273.028 228.46 291.994 230.288 302.28 228.46C305.089 228.931 307.586 226.46 307.586 223.592V221.684C307.586 213.413 300.89 206.122 292.629 205.399Z" fill="url(#paint12_linear_4972_11721)"/>
</g>
<mask id="mask2_4972_11721" style="mask-type:alpha" maskUnits="userSpaceOnUse" x="260" y="167" width="48" height="63">
<path d="M292.629 205.399L289.463 205.122C288.856 205.069 288.39 204.56 288.39 203.95V202.769C288.39 202.26 288.719 201.813 289.201 201.652C294.185 199.983 297.684 195.353 297.684 189.597V186.602L298.581 178.23C298.597 178.002 298.669 177.789 298.79 177.605C298.998 177.29 299.349 176.72 299.675 176.016C300.145 175.001 299.211 173.788 298.086 173.947C297.495 174.031 296.793 174.059 295.942 174.018C293.483 173.897 289.078 170.938 284.879 168.663C280.678 166.389 276.889 167.392 275.658 167.855C274.677 168.226 273.891 169.83 273.614 171.433C273.5 172.096 272.928 172.54 272.246 172.489C270.208 172.338 268.011 172.602 268.181 175.208C268.378 178.252 269.808 183.413 269.915 184.127C269.92 184.155 269.913 184.18 269.915 184.207C269.929 184.356 269.938 186.583 269.944 187.282C269.994 193.18 273.706 198.516 278.906 200.941C279.318 201.133 279.58 201.549 279.58 202.004V202.972C279.58 203.662 278.99 204.204 278.303 204.144L275.342 203.884C267.081 203.161 260.384 209.28 260.384 217.55V220.313C260.384 222.846 262.319 224.959 264.839 225.181C264.839 225.181 265.114 225.217 268.394 225.492C273.028 228.46 291.994 230.288 302.28 228.46C305.089 228.931 307.586 226.46 307.586 223.592V221.684C307.586 213.413 300.89 206.122 292.629 205.399Z" fill="url(#paint13_linear_4972_11721)"/>
</mask>
<g mask="url(#mask2_4972_11721)">
<path d="M283.982 210.397C291.938 211.482 293.626 206.63 293.475 204.068C295.434 202.109 299.081 195.841 297.996 186.438C297.028 178.052 276.255 174.102 273.794 179.798C273.614 180.214 273.242 180.547 272.797 180.631C271.083 180.955 270.273 182.394 269.968 184.63C268.883 192.586 273.434 200 275.845 202.712C275.242 204.822 276.026 209.312 283.982 210.397Z" fill="url(#paint14_radial_4972_11721)"/>
</g>
<path fill-rule="evenodd" clip-rule="evenodd" d="M276.171 208.213C275.044 206.728 274.858 205.059 274.942 203.841L276.746 203.966C276.68 204.912 276.834 206.096 277.611 207.12C278.377 208.13 279.859 209.127 282.741 209.497C286.285 209.951 288.543 209.613 289.934 208.854C291.258 208.132 291.926 206.955 292.125 205.316L293.92 205.535C293.668 207.606 292.754 209.376 290.8 210.442C288.914 211.471 286.199 211.763 282.512 211.29C279.294 210.878 277.309 209.713 276.171 208.213Z" fill="#4D6AD2"/>
<path fill-rule="evenodd" clip-rule="evenodd" d="M280.22 189.317C280.22 188.194 279.31 187.283 278.186 187.283C277.063 187.283 276.152 188.194 276.152 189.317V190.508C276.152 191.631 277.063 192.542 278.186 192.542C279.31 192.542 280.22 191.631 280.22 190.508V189.317ZM289.542 189.784C289.542 188.66 288.632 187.749 287.508 187.749C286.385 187.749 285.474 188.66 285.474 189.784V190.96C285.474 192.083 286.385 192.994 287.508 192.994C288.632 192.994 289.542 192.083 289.542 190.96V189.784Z" fill="#7580E2"/>
<path fill-rule="evenodd" clip-rule="evenodd" d="M266.039 225.274L266.785 217.812C266.797 217.695 266.849 217.584 266.933 217.501C267.241 217.193 267.767 217.384 267.807 217.817L268.504 225.492L266.039 225.274Z" fill="#3955B9"/>
</g>
</g>
<defs>
<filter id="filter0_ii_4972_11721" x="-30" y="-30" width="385" height="295" filterUnits="userSpaceOnUse" color-interpolation-filters="sRGB">
<feFlood flood-opacity="0" result="BackgroundImageFix"/>
<feBlend mode="normal" in="SourceGraphic" in2="BackgroundImageFix" result="shape"/>
<feColorMatrix in="SourceAlpha" type="matrix" values="0 0 0 0 0 0 0 0 0 0 0 0 0 0 0 0 0 0 127 0" result="hardAlpha"/>
<feOffset dx="-30" dy="-30"/>
<feGaussianBlur stdDeviation="45"/>
<feComposite in2="hardAlpha" operator="arithmetic" k2="-1" k3="1"/>
<feColorMatrix type="matrix" values="0 0 0 0 0.475833 0 0 0 0 0.291667 0 0 0 0 1 0 0 0 1 0"/>
<feBlend mode="normal" in2="shape" result="effect1_innerShadow_4972_11721"/>
<feColorMatrix in="SourceAlpha" type="matrix" values="0 0 0 0 0 0 0 0 0 0 0 0 0 0 0 0 0 0 127 0" result="hardAlpha"/>
<feOffset dx="40" dy="40"/>
<feGaussianBlur stdDeviation="50"/>
<feComposite in2="hardAlpha" operator="arithmetic" k2="-1" k3="1"/>
<feColorMatrix type="matrix" values="0 0 0 0 1 0 0 0 0 1 0 0 0 0 1 0 0 0 0.3 0"/>
<feBlend mode="normal" in2="effect1_innerShadow_4972_11721" result="effect2_innerShadow_4972_11721"/>
</filter>
<filter id="filter1_f_4972_11721" x="188.808" y="194.857" width="145.389" height="42.5693" filterUnits="userSpaceOnUse" color-interpolation-filters="sRGB">
<feFlood flood-opacity="0" result="BackgroundImageFix"/>
<feBlend mode="normal" in="SourceGraphic" in2="BackgroundImageFix" result="shape"/>
<feGaussianBlur stdDeviation="6.5" result="effect1_foregroundBlur_4972_11721"/>
</filter>
<filter id="filter2_f_4972_11721" x="238.586" y="205.524" width="93.1392" height="34.8887" filterUnits="userSpaceOnUse" color-interpolation-filters="sRGB">
<feFlood flood-opacity="0" result="BackgroundImageFix"/>
<feBlend mode="normal" in="SourceGraphic" in2="BackgroundImageFix" result="shape"/>
<feGaussianBlur stdDeviation="6.5" result="effect1_foregroundBlur_4972_11721"/>
</filter>
<filter id="filter3_i_4972_11721" x="260.384" y="167.231" width="50.2026" height="62.959" filterUnits="userSpaceOnUse" color-interpolation-filters="sRGB">
<feFlood flood-opacity="0" result="BackgroundImageFix"/>
<feBlend mode="normal" in="SourceGraphic" in2="BackgroundImageFix" result="shape"/>
<feColorMatrix in="SourceAlpha" type="matrix" values="0 0 0 0 0 0 0 0 0 0 0 0 0 0 0 0 0 0 127 0" result="hardAlpha"/>
<feOffset dx="3" dy="1"/>
<feGaussianBlur stdDeviation="2"/>
<feComposite in2="hardAlpha" operator="arithmetic" k2="-1" k3="1"/>
<feColorMatrix type="matrix" values="0 0 0 0 1 0 0 0 0 1 0 0 0 0 1 0 0 0 0.25 0"/>
<feBlend mode="normal" in2="shape" result="effect1_innerShadow_4972_11721"/>
</filter>
<linearGradient id="paint0_linear_4972_11721" x1="105" y1="71.9197" x2="125.213" y2="229.151" gradientUnits="userSpaceOnUse">
<stop stop-color="#A585FF"/>
<stop offset="1" stop-color="#806BFF"/>
</linearGradient>
<linearGradient id="paint1_linear_4972_11721" x1="270.644" y1="97.2143" x2="270.644" y2="218.889" gradientUnits="userSpaceOnUse">
<stop stop-color="#75B2FB"/>
<stop offset="1" stop-color="#3667E3"/>
</linearGradient>
<linearGradient id="paint2_linear_4972_11721" x1="249.549" y1="101.485" x2="249.549" y2="223.202" gradientUnits="userSpaceOnUse">
<stop stop-color="#79B5FC"/>
<stop offset="1" stop-color="#588CF0"/>
</linearGradient>
<linearGradient id="paint3_linear_4972_11721" x1="232.562" y1="116.373" x2="232.562" y2="152.12" gradientUnits="userSpaceOnUse">
<stop stop-color="#75FBF3"/>
<stop offset="0.268017" stop-color="#39D7C4"/>
<stop offset="1" stop-color="#10BDA3"/>
</linearGradient>
<linearGradient id="paint4_linear_4972_11721" x1="230.43" y1="113.939" x2="205.067" y2="137.424" gradientUnits="userSpaceOnUse">
<stop stop-color="#72FFE9"/>
<stop offset="1" stop-color="#00DAB8"/>
</linearGradient>
<linearGradient id="paint5_linear_4972_11721" x1="232.562" y1="162.595" x2="232.562" y2="198.342" gradientUnits="userSpaceOnUse">
<stop stop-color="#75FBF3"/>
<stop offset="0.268017" stop-color="#39D7C4"/>
<stop offset="1" stop-color="#10BDA3"/>
</linearGradient>
<linearGradient id="paint6_linear_4972_11721" x1="230.43" y1="160.16" x2="205.067" y2="183.646" gradientUnits="userSpaceOnUse">
<stop stop-color="#72FFE9"/>
<stop offset="1" stop-color="#00DAB8"/>
</linearGradient>
<linearGradient id="paint7_linear_4972_11721" x1="271.821" y1="119.929" x2="271.821" y2="155.676" gradientUnits="userSpaceOnUse">
<stop stop-color="#FFB9B9"/>
<stop offset="0.268017" stop-color="#FF7070"/>
<stop offset="1" stop-color="#F15151"/>
</linearGradient>
<linearGradient id="paint8_linear_4972_11721" x1="254.159" y1="140.823" x2="275.817" y2="141.285" gradientUnits="userSpaceOnUse">
<stop stop-color="#FF9381"/>
<stop offset="1" stop-color="#FF7D65"/>
</linearGradient>
<linearGradient id="paint9_linear_4972_11721" x1="290.123" y1="164.055" x2="312.809" y2="227.108" gradientUnits="userSpaceOnUse">
<stop stop-color="#7EA6F2"/>
<stop offset="0.0436877" stop-color="#6386E1"/>
<stop offset="0.11761" stop-color="#607CDF"/>
<stop offset="0.190042" stop-color="#7597F1"/>
<stop offset="0.214947" stop-color="#627EE0"/>
<stop offset="1" stop-color="#3E54C7"/>
</linearGradient>
<linearGradient id="paint10_linear_4972_11721" x1="290.123" y1="164.055" x2="290.123" y2="226.947" gradientUnits="userSpaceOnUse">
<stop stop-color="#9C65E3"/>
<stop offset="1" stop-color="#723EC7"/>
</linearGradient>
<linearGradient id="paint11_linear_4972_11721" x1="297.996" y1="183.727" x2="299.804" y2="205.877" gradientUnits="userSpaceOnUse">
<stop stop-color="#FFC6AE"/>
<stop offset="0.67935" stop-color="#F4BEA8"/>
<stop offset="0.741121" stop-color="#E2A388"/>
<stop offset="0.857181" stop-color="#E2A388"/>
<stop offset="1" stop-color="#E4916E"/>
</linearGradient>
<linearGradient id="paint12_linear_4972_11721" x1="267.672" y1="169.656" x2="306.073" y2="215.808" gradientUnits="userSpaceOnUse">
<stop stop-color="#8195FF"/>
<stop offset="1" stop-color="#4D66E9"/>
</linearGradient>
<linearGradient id="paint13_linear_4972_11721" x1="283.985" y1="167.231" x2="283.985" y2="228.583" gradientUnits="userSpaceOnUse">
<stop stop-color="#B587EF"/>
<stop offset="1" stop-color="#854BE4"/>
</linearGradient>
<radialGradient id="paint14_radial_4972_11721" cx="0" cy="0" r="1" gradientUnits="userSpaceOnUse" gradientTransform="translate(285.338 179.205) rotate(92.4468) scale(31.3763 32.2989)">
<stop stop-color="#FFECE4"/>
<stop offset="0.725231" stop-color="#FFD2BF"/>
<stop offset="0.732438" stop-color="#F0B39A"/>
<stop offset="1" stop-color="#F0B39A"/>
</radialGradient>
<clipPath id="clip0_4972_11721">
<path d="M177 78H315V175C315 202.614 292.614 225 265 225H177V78Z" fill="white"/>
</clipPath>
</defs>
</svg>
