<svg width="315" height="225" viewBox="0 0 315 225" fill="none" xmlns="http://www.w3.org/2000/svg">
<g filter="url(#filter0_ii_4972_11655)">
<path d="M1.39876e-05 80C9.09151e-06 51.9974 6.64344e-06 37.9961 5.44968 27.3005C10.2433 17.8924 17.8924 10.2433 27.3005 5.44967C37.9961 -6.64344e-06 51.9974 -9.09151e-06 80 -1.39876e-05L235 -4.10887e-05C263.003 -4.59848e-05 277.004 -4.84329e-05 287.7 5.44962C297.108 10.2433 304.757 17.8923 309.55 27.3004C315 37.996 315 51.9973 315 79.9999L315 145C315 173.003 315 187.004 309.55 197.699C304.757 207.108 297.108 214.757 287.7 219.55C277.004 225 263.003 225 235 225L80 225C51.9974 225 37.9961 225 27.3005 219.55C17.8924 214.757 10.2434 207.108 5.44971 197.7C3.26968e-05 187.004 3.02487e-05 173.003 2.53526e-05 145L1.39876e-05 80Z" fill="url(#paint0_linear_4972_11655)"/>
</g>
<path opacity="0.05" fill-rule="evenodd" clip-rule="evenodd" d="M180.521 224.999L107.941 224.999C100.013 219.883 92.5808 213.149 85.6874 204.996C76.5943 194.242 77.941 178.152 88.6953 169.059C99.4496 159.966 115.539 161.313 124.632 172.067C131.874 180.632 137.584 183.696 140.934 184.752C144.007 185.721 146.44 185.459 148.76 184.514C154.703 182.093 160.603 174.566 161.915 167.253C165.585 146.791 178.099 122.938 196.864 105.5C216.262 87.4731 244.785 74.3362 278.693 82.4699C293.219 85.9545 305.188 91.7307 315.001 98.6706V144.999C315.001 173.002 315.001 187.003 309.551 197.699C309.531 197.739 309.51 197.779 309.49 197.819L307.152 175.037C307.139 174.96 307.122 174.864 307.101 174.751C307.085 174.665 307.067 174.57 307.047 174.465C306.888 173.65 306.589 172.283 306.089 170.523C305.073 166.954 303.311 162.062 300.403 156.948C294.783 147.067 285.076 136.448 266.796 132.063C253.643 128.908 241.956 133.218 231.581 142.859C220.573 153.089 213.752 167.124 212.114 176.256C208.856 194.418 197.632 213.311 180.521 224.999Z" fill="black"/>
<g clip-path="url(#clip0_4972_11655)">
<mask id="mask0_4972_11655" style="mask-type:alpha" maskUnits="userSpaceOnUse" x="180" y="98" width="162" height="162">
<rect x="180" y="98.3955" width="161.205" height="161.205" fill="#C4C4C4"/>
</mask>
<g mask="url(#mask0_4972_11655)">
<g filter="url(#filter1_f_4972_11655)">
<path d="M283.106 231.516L201.494 223.168L239.534 214.821L321.783 223.326L283.106 231.516Z" fill="#FFB627"/>
</g>
<g filter="url(#filter2_f_4972_11655)">
<path d="M288.586 238.107L242.691 233.629L264.083 229.151L310.336 233.714L288.586 238.107Z" fill="#972FFF"/>
</g>
<path d="M249.957 106.396L295.952 110.193C307.099 111.114 315.677 120.429 315.677 131.614V165.383V201.298C315.677 213.287 307.191 223.599 295.426 225.906L283.31 228.282C281.247 228.686 279.139 228.81 277.043 228.648L271.159 228.196L226.64 217.762L217.614 110.039L229.921 107.562C236.512 106.235 243.257 105.842 249.957 106.396Z" fill="url(#paint1_linear_4972_11655)"/>
<path d="M205.076 200.73V126.727C205.076 116.491 213.881 108.473 224.072 109.428L274.625 114.168C285.67 115.203 294.113 124.474 294.113 135.568V169.556V208.645C294.113 220.253 284.128 229.346 272.571 228.262L226.188 223.914C214.222 222.792 205.076 212.748 205.076 200.73Z" fill="url(#paint2_linear_4972_11655)"/>
<path d="M226.051 123.542L240.203 124.658C243.633 124.928 246.273 127.665 246.273 130.951V140.872V155.779C246.273 159.302 243.662 162.331 240.042 163.009L236.313 163.707C235.679 163.826 235.03 163.862 234.385 163.815L232.574 163.682L218.876 160.616L216.099 124.613L219.885 123.885C221.914 123.495 223.989 123.38 226.051 123.542Z" fill="url(#paint3_linear_4972_11655)"/>
<path d="M212.241 155.613V129.516C212.241 126.509 214.95 124.153 218.086 124.434L233.641 125.826C237.04 126.13 239.638 128.854 239.638 132.114V142.099V157.939C239.638 161.349 236.566 164.02 233.009 163.702L218.737 162.424C215.055 162.095 212.241 159.144 212.241 155.613Z" fill="url(#paint4_linear_4972_11655)"/>
<path d="M219.406 143.53L223.705 148.546L232.302 141.381" stroke="white" stroke-width="8.06026" stroke-linecap="round" stroke-linejoin="round"/>
<path d="M226.051 170.115L240.203 171.231C243.633 171.501 246.273 174.238 246.273 177.524V187.446V202.353C246.273 205.875 243.662 208.905 240.042 209.582L236.313 210.28C235.679 210.399 235.03 210.435 234.385 210.388L232.574 210.255L218.876 207.19L216.099 171.186L219.885 170.458C221.914 170.068 223.989 169.953 226.051 170.115Z" fill="url(#paint5_linear_4972_11655)"/>
<path d="M212.241 202.186V176.089C212.241 173.082 214.95 170.726 218.086 171.007L233.641 172.399C237.04 172.704 239.638 175.428 239.638 178.687V188.672V204.512C239.638 207.922 236.566 210.594 233.009 210.275L218.737 208.998C215.055 208.668 212.241 205.717 212.241 202.186Z" fill="url(#paint6_linear_4972_11655)"/>
<path d="M219.406 190.104L223.705 195.119L232.302 187.954" stroke="white" stroke-width="8.06026" stroke-linecap="round" stroke-linejoin="round"/>
<path d="M265.56 127.126L279.818 128.242C283.273 128.512 285.933 131.249 285.933 134.535V144.456V159.363C285.933 162.886 283.302 165.915 279.655 166.593L275.899 167.291C275.26 167.41 274.606 167.446 273.957 167.399L272.132 167.266L258.332 164.2L255.534 128.197L259.349 127.469C261.392 127.079 263.483 126.964 265.56 127.126Z" fill="url(#paint7_linear_4972_11655)"/>
<path d="M251.647 159.197V133.1C251.647 130.093 254.376 127.737 257.536 128.018L273.206 129.41C276.63 129.714 279.247 132.438 279.247 135.697V145.683V161.523C279.247 164.933 276.152 167.604 272.57 167.286L258.191 166.008C254.482 165.679 251.647 162.728 251.647 159.197Z" fill="url(#paint8_linear_4972_11655)"/>
<path d="M260.603 152.354L270.006 142.95" stroke="white" stroke-width="8.06026" stroke-linecap="round" stroke-linejoin="round"/>
<path d="M260.603 142.279L270.006 153.026" stroke="white" stroke-width="8.06026" stroke-linecap="round" stroke-linejoin="round"/>
<path d="M287.091 210.012L290.285 210.292C298.617 211.02 305.372 218.366 305.37 226.699V228.621C305.37 231.06 303.606 233.057 301.324 233.467C301.091 233.547 300.85 233.61 300.603 233.654C300.371 233.734 300.132 233.796 299.886 233.841C299.655 233.92 299.417 233.982 299.173 234.026C298.937 234.107 298.694 234.171 298.444 234.216C298.218 234.293 297.985 234.354 297.746 234.398C297.508 234.48 297.262 234.545 297.01 234.59C296.776 234.67 296.534 234.733 296.286 234.777C296.058 234.855 295.822 234.917 295.58 234.96C295.347 235.04 295.107 235.103 294.861 235.148C294.629 235.228 294.39 235.29 294.144 235.335C293.513 235.552 292.826 235.644 292.115 235.582L254.35 232.278C251.808 232.054 249.856 229.926 249.856 227.373V224.589C249.856 217.857 254.266 212.54 260.353 211.13C260.588 211.062 260.826 211.001 261.067 210.945C261.3 210.877 261.536 210.816 261.775 210.76C262.017 210.69 262.261 210.627 262.509 210.569C262.748 210.5 262.99 210.437 263.234 210.381C263.463 210.315 263.694 210.255 263.928 210.2C264.175 210.129 264.426 210.063 264.679 210.005C264.906 209.94 265.135 209.88 265.367 209.826C265.61 209.756 265.855 209.692 266.103 209.635C266.342 209.566 266.583 209.503 266.827 209.447C267.062 209.379 267.299 209.318 267.54 209.262C268.085 209.105 268.645 208.979 269.218 208.888C269.203 208.444 268.943 208.044 268.538 207.855C263.294 205.412 259.55 200.036 259.499 194.094C259.497 193.905 259.495 193.606 259.493 193.266C259.488 192.337 259.481 191.105 259.47 190.995C259.469 190.983 259.47 190.972 259.471 190.96C259.472 190.945 259.473 190.93 259.47 190.915C259.442 190.729 259.326 190.246 259.165 189.578C258.701 187.656 257.868 184.205 257.721 181.928C257.604 180.144 258.59 179.45 259.879 179.235C260.102 179.152 260.343 179.091 260.596 179.049C260.819 178.965 261.059 178.905 261.312 178.863C261.536 178.778 261.778 178.717 262.032 178.675C262.257 178.591 262.5 178.53 262.754 178.487C262.876 178.442 263.003 178.403 263.135 178.37C263.164 178.293 263.186 178.211 263.201 178.125C263.48 176.51 264.273 174.894 265.263 174.52C265.549 174.413 265.971 174.277 266.504 174.158C266.712 174.096 266.952 174.032 267.22 173.972C267.427 173.91 267.665 173.847 267.93 173.788C268.14 173.724 268.383 173.659 268.655 173.599C268.866 173.535 269.109 173.47 269.382 173.41C269.587 173.348 269.823 173.285 270.087 173.226C270.301 173.162 270.548 173.096 270.826 173.034C271.028 172.974 271.26 172.912 271.518 172.854C271.731 172.79 271.979 172.723 272.256 172.662C272.466 172.599 272.709 172.534 272.979 172.474C273.188 172.412 273.428 172.348 273.695 172.288C275.293 171.809 278.718 171.251 282.468 173.28C283.519 173.848 284.582 174.459 285.625 175.058C288.787 176.874 291.762 178.583 293.627 178.674C294.485 178.716 295.193 178.687 295.789 178.603C296.924 178.442 297.866 179.665 297.392 180.687C297.063 181.397 296.709 181.971 296.5 182.288C296.377 182.474 296.305 182.689 296.288 182.918L295.384 191.353V194.371C295.384 200.17 291.855 204.835 286.828 206.517C286.341 206.679 286.01 207.129 286.01 207.643V208.832C286.01 209.447 286.479 209.959 287.091 210.012Z" fill="url(#paint9_linear_4972_11655)"/>
<mask id="mask1_4972_11655" style="mask-type:alpha" maskUnits="userSpaceOnUse" x="249" y="171" width="57" height="65">
<path d="M287.091 210.012L290.285 210.292C298.617 211.02 305.372 218.366 305.37 226.699V228.621C305.37 231.06 303.606 233.057 301.324 233.467C301.091 233.547 300.85 233.61 300.603 233.654C300.371 233.734 300.132 233.796 299.886 233.841C299.655 233.92 299.417 233.982 299.173 234.026C298.937 234.107 298.694 234.171 298.444 234.216C298.218 234.293 297.985 234.354 297.746 234.398C297.508 234.48 297.262 234.545 297.01 234.59C296.776 234.67 296.534 234.733 296.286 234.777C296.058 234.855 295.822 234.917 295.58 234.96C295.347 235.04 295.107 235.103 294.861 235.148C294.629 235.228 294.39 235.29 294.144 235.335C293.513 235.552 292.826 235.644 292.115 235.582L254.35 232.278C251.808 232.054 249.856 229.926 249.856 227.373V224.589C249.856 217.857 254.266 212.54 260.353 211.13C260.588 211.062 260.826 211.001 261.067 210.945C261.3 210.877 261.536 210.816 261.775 210.76C262.017 210.69 262.261 210.627 262.509 210.569C262.748 210.5 262.99 210.437 263.234 210.381C263.463 210.315 263.694 210.255 263.928 210.2C264.175 210.129 264.426 210.063 264.679 210.005C264.906 209.94 265.135 209.88 265.367 209.826C265.61 209.756 265.855 209.692 266.103 209.635C266.342 209.566 266.583 209.503 266.827 209.447C267.062 209.379 267.299 209.318 267.54 209.262C268.085 209.105 268.645 208.979 269.218 208.888C269.203 208.444 268.943 208.044 268.538 207.855C263.294 205.412 259.55 200.036 259.499 194.094C259.497 193.905 259.495 193.606 259.493 193.266C259.488 192.337 259.481 191.105 259.47 190.995C259.469 190.983 259.47 190.972 259.471 190.96C259.472 190.945 259.473 190.93 259.47 190.915C259.442 190.729 259.326 190.246 259.165 189.578C258.701 187.656 257.868 184.205 257.721 181.928C257.604 180.144 258.59 179.45 259.879 179.235C260.102 179.152 260.343 179.091 260.596 179.049C260.819 178.965 261.059 178.905 261.312 178.863C261.536 178.778 261.778 178.717 262.032 178.675C262.257 178.591 262.5 178.53 262.754 178.487C262.876 178.442 263.003 178.403 263.135 178.37C263.164 178.293 263.186 178.211 263.201 178.125C263.48 176.51 264.273 174.894 265.263 174.52C265.549 174.413 265.971 174.277 266.504 174.158C266.712 174.096 266.952 174.032 267.22 173.972C267.427 173.91 267.665 173.847 267.93 173.788C268.14 173.724 268.383 173.659 268.655 173.599C268.866 173.535 269.109 173.47 269.382 173.41C269.587 173.348 269.823 173.285 270.087 173.226C270.301 173.162 270.548 173.096 270.826 173.034C271.028 172.974 271.26 172.912 271.518 172.854C271.731 172.79 271.979 172.723 272.256 172.662C272.466 172.599 272.709 172.534 272.979 172.474C273.188 172.412 273.428 172.348 273.695 172.288C275.293 171.809 278.718 171.251 282.468 173.28C283.519 173.848 284.582 174.459 285.625 175.058C288.787 176.874 291.762 178.583 293.627 178.674C294.485 178.716 295.193 178.687 295.789 178.603C296.924 178.442 297.866 179.665 297.392 180.687C297.063 181.397 296.709 181.971 296.5 182.288C296.377 182.474 296.305 182.689 296.288 182.918L295.384 191.353V194.371C295.384 200.17 291.855 204.835 286.828 206.517C286.341 206.679 286.01 207.129 286.01 207.643V208.832C286.01 209.447 286.479 209.959 287.091 210.012Z" fill="url(#paint10_linear_4972_11655)"/>
</mask>
<g mask="url(#mask1_4972_11655)">
<path d="M279.92 212.828L289.03 210.095L296.772 205.996L299.505 190.51L285.386 193.243L272.177 209.184L266.256 211.006L276.732 212.828H279.92Z" fill="url(#paint11_linear_4972_11655)"/>
</g>
<path d="M282.38 212.348L279.186 212.069C278.574 212.016 278.105 211.503 278.105 210.889V209.699C278.105 209.186 278.436 208.735 278.922 208.574C283.95 206.892 287.478 202.227 287.478 196.427V193.41L288.383 184.975C288.399 184.746 288.472 184.531 288.594 184.345C288.803 184.028 289.158 183.454 289.487 182.744C289.961 181.722 289.018 180.499 287.883 180.66C287.288 180.744 286.58 180.773 285.722 180.731C283.241 180.61 278.799 177.628 274.563 175.336C270.326 173.045 266.504 174.055 265.263 174.522C264.273 174.895 263.48 176.512 263.201 178.127C263.086 178.795 262.509 179.242 261.821 179.191C259.765 179.038 257.55 179.305 257.721 181.93C257.919 184.998 259.362 190.197 259.47 190.916C259.475 190.945 259.468 190.97 259.47 190.997C259.484 191.147 259.493 193.391 259.499 194.096C259.55 200.038 263.294 205.414 268.538 207.857C268.954 208.051 269.218 208.469 269.218 208.928V209.904C269.218 210.599 268.623 211.144 267.93 211.084L264.943 210.822C256.612 210.094 249.856 216.259 249.856 224.591V227.375C249.856 229.927 251.808 232.056 254.35 232.279C254.35 232.279 254.628 232.316 257.935 232.593C262.609 235.583 281.739 237.425 292.115 235.583C294.947 236.058 297.466 233.568 297.466 230.679V228.757C297.466 220.423 290.712 213.077 282.38 212.348Z" fill="url(#paint12_linear_4972_11655)"/>
<mask id="mask2_4972_11655" style="mask-type:alpha" maskUnits="userSpaceOnUse" x="249" y="173" width="49" height="64">
<path d="M282.38 212.348L279.186 212.069C278.574 212.016 278.105 211.503 278.105 210.889V209.699C278.105 209.186 278.436 208.735 278.922 208.574C283.95 206.892 287.478 202.227 287.478 196.427V193.41L288.383 184.975C288.399 184.746 288.472 184.531 288.594 184.345C288.803 184.028 289.158 183.454 289.487 182.744C289.961 181.722 289.018 180.499 287.883 180.66C287.288 180.744 286.58 180.773 285.722 180.731C283.241 180.61 278.799 177.628 274.563 175.336C270.326 173.045 266.504 174.055 265.263 174.522C264.273 174.895 263.48 176.512 263.201 178.127C263.086 178.795 262.509 179.242 261.821 179.191C259.765 179.038 257.55 179.305 257.721 181.93C257.919 184.998 259.362 190.197 259.47 190.916C259.475 190.945 259.468 190.97 259.47 190.997C259.484 191.147 259.493 193.391 259.499 194.096C259.55 200.038 263.294 205.414 268.538 207.857C268.954 208.051 269.218 208.469 269.218 208.928V209.904C269.218 210.599 268.623 211.144 267.93 211.084L264.943 210.822C256.612 210.094 249.856 216.259 249.856 224.591V227.375C249.856 229.927 251.808 232.056 254.35 232.279C254.35 232.279 254.628 232.316 257.935 232.593C262.609 235.583 281.739 237.425 292.115 235.583C294.947 236.058 297.466 233.568 297.466 230.679V228.757C297.466 220.423 290.712 213.077 282.38 212.348Z" fill="url(#paint13_linear_4972_11655)"/>
</mask>
<g mask="url(#mask2_4972_11655)">
<path d="M273.536 217.383C281.552 218.476 283.253 213.588 283.101 211.007C285.075 209.033 288.748 202.717 287.655 193.243C286.68 184.794 265.751 180.814 263.271 186.554C263.09 186.973 262.715 187.308 262.267 187.393C260.54 187.719 259.724 189.169 259.417 191.422C258.323 199.438 262.909 206.907 265.338 209.64C264.731 211.766 265.52 216.29 273.536 217.383Z" fill="url(#paint14_radial_4972_11655)"/>
</g>
<path fill-rule="evenodd" clip-rule="evenodd" d="M265.667 215.182C264.532 213.686 264.344 212.003 264.429 210.776L266.247 210.903C266.18 211.856 266.336 213.049 267.118 214.081C267.89 215.098 269.383 216.103 272.287 216.475C275.858 216.932 278.132 216.592 279.534 215.828C280.867 215.1 281.54 213.914 281.741 212.263L283.55 212.483C283.296 214.57 282.375 216.353 280.407 217.427C278.506 218.464 275.771 218.758 272.055 218.282C268.813 217.867 266.813 216.692 265.667 215.182Z" fill="#824DD2"/>
<path fill-rule="evenodd" clip-rule="evenodd" d="M269.756 196.142C269.756 195.01 268.839 194.093 267.707 194.093C266.575 194.093 265.657 195.01 265.657 196.142V197.341C265.657 198.473 266.575 199.391 267.707 199.391C268.839 199.391 269.756 198.473 269.756 197.341V196.142ZM279.149 196.612C279.149 195.48 278.231 194.562 277.099 194.562C275.967 194.562 275.049 195.48 275.049 196.612V197.797C275.049 198.929 275.967 199.846 277.099 199.846C278.231 199.846 279.149 198.929 279.149 197.797V196.612Z" fill="#9F75E2"/>
<path fill-rule="evenodd" clip-rule="evenodd" d="M255.459 232.373L256.211 224.855C256.223 224.736 256.276 224.625 256.36 224.541C256.67 224.231 257.201 224.423 257.24 224.86L257.943 232.592L255.459 232.373Z" fill="#6C39B9"/>
<path d="M293.762 196.362C293.762 198.744 292.571 199.34 290.188 199.935C287.806 200.531 287.21 200.531 287.21 200.531L288.402 198.149L287.806 193.384L290.784 192.788C291.777 192.987 293.762 193.979 293.762 196.362Z" fill="#EEB298"/>
<path d="M290.784 196.956C290.784 199.339 288.203 200.53 287.21 200.53C287.21 200.53 287.806 198.743 287.806 197.552V193.383C288.799 193.581 290.784 194.574 290.784 196.956Z" fill="#FFD2BF"/>
<path d="M256.234 194.539C256.234 196.922 258.055 198.709 261.243 198.253C261.243 198.253 260.332 196.256 260.332 195.065V190.966C257.599 190.966 256.234 192.157 256.234 194.539Z" fill="#FFD2BF"/>
</g>
</g>
<defs>
<filter id="filter0_ii_4972_11655" x="-30" y="-30" width="385" height="295" filterUnits="userSpaceOnUse" color-interpolation-filters="sRGB">
<feFlood flood-opacity="0" result="BackgroundImageFix"/>
<feBlend mode="normal" in="SourceGraphic" in2="BackgroundImageFix" result="shape"/>
<feColorMatrix in="SourceAlpha" type="matrix" values="0 0 0 0 0 0 0 0 0 0 0 0 0 0 0 0 0 0 127 0" result="hardAlpha"/>
<feOffset dx="-30" dy="-30"/>
<feGaussianBlur stdDeviation="45"/>
<feComposite in2="hardAlpha" operator="arithmetic" k2="-1" k3="1"/>
<feColorMatrix type="matrix" values="0 0 0 0 1 0 0 0 0 0.295833 0 0 0 0 0.422583 0 0 0 1 0"/>
<feBlend mode="normal" in2="shape" result="effect1_innerShadow_4972_11655"/>
<feColorMatrix in="SourceAlpha" type="matrix" values="0 0 0 0 0 0 0 0 0 0 0 0 0 0 0 0 0 0 127 0" result="hardAlpha"/>
<feOffset dx="40" dy="40"/>
<feGaussianBlur stdDeviation="50"/>
<feComposite in2="hardAlpha" operator="arithmetic" k2="-1" k3="1"/>
<feColorMatrix type="matrix" values="0 0 0 0 1 0 0 0 0 1 0 0 0 0 1 0 0 0 0.5 0"/>
<feBlend mode="normal" in2="effect1_innerShadow_4972_11655" result="effect2_innerShadow_4972_11655"/>
</filter>
<filter id="filter1_f_4972_11655" x="178.209" y="191.536" width="166.859" height="63.2647" filterUnits="userSpaceOnUse" color-interpolation-filters="sRGB">
<feFlood flood-opacity="0" result="BackgroundImageFix"/>
<feBlend mode="normal" in="SourceGraphic" in2="BackgroundImageFix" result="shape"/>
<feGaussianBlur stdDeviation="11.6426" result="effect1_foregroundBlur_4972_11655"/>
</filter>
<filter id="filter2_f_4972_11655" x="219.406" y="205.866" width="114.215" height="55.5264" filterUnits="userSpaceOnUse" color-interpolation-filters="sRGB">
<feFlood flood-opacity="0" result="BackgroundImageFix"/>
<feBlend mode="normal" in="SourceGraphic" in2="BackgroundImageFix" result="shape"/>
<feGaussianBlur stdDeviation="11.6426" result="effect1_foregroundBlur_4972_11655"/>
</filter>
<linearGradient id="paint0_linear_4972_11655" x1="105" y1="71.9196" x2="125.213" y2="229.151" gradientUnits="userSpaceOnUse">
<stop stop-color="#FF809E"/>
<stop offset="1" stop-color="#FF627E"/>
</linearGradient>
<linearGradient id="paint1_linear_4972_11655" x1="270.848" y1="103.346" x2="270.848" y2="225.937" gradientUnits="userSpaceOnUse">
<stop stop-color="#FFCF41"/>
<stop offset="1" stop-color="#FC9B16"/>
</linearGradient>
<linearGradient id="paint2_linear_4972_11655" x1="249.595" y1="107.647" x2="249.595" y2="230.282" gradientUnits="userSpaceOnUse">
<stop stop-color="#FFDA57"/>
<stop offset="1" stop-color="#FEC32A"/>
</linearGradient>
<linearGradient id="paint3_linear_4972_11655" x1="232.479" y1="122.646" x2="232.479" y2="158.663" gradientUnits="userSpaceOnUse">
<stop stop-color="#75FBF3"/>
<stop offset="0.268017" stop-color="#21ECD4"/>
<stop offset="1" stop-color="#00D1B1"/>
</linearGradient>
<linearGradient id="paint4_linear_4972_11655" x1="230.331" y1="120.194" x2="204.777" y2="143.857" gradientUnits="userSpaceOnUse">
<stop stop-color="#72FFE9"/>
<stop offset="1" stop-color="#00DAB8"/>
</linearGradient>
<linearGradient id="paint5_linear_4972_11655" x1="232.479" y1="169.219" x2="232.479" y2="205.236" gradientUnits="userSpaceOnUse">
<stop stop-color="#75FBF3"/>
<stop offset="0.268017" stop-color="#21ECD4"/>
<stop offset="1" stop-color="#00D1B1"/>
</linearGradient>
<linearGradient id="paint6_linear_4972_11655" x1="230.331" y1="166.767" x2="204.777" y2="190.43" gradientUnits="userSpaceOnUse">
<stop stop-color="#72FFE9"/>
<stop offset="1" stop-color="#00DAB8"/>
</linearGradient>
<linearGradient id="paint7_linear_4972_11655" x1="272.036" y1="126.23" x2="272.036" y2="162.247" gradientUnits="userSpaceOnUse">
<stop stop-color="#FFB9B9"/>
<stop offset="0.268017" stop-color="#FF7070"/>
<stop offset="1" stop-color="#F15151"/>
</linearGradient>
<linearGradient id="paint8_linear_4972_11655" x1="254.24" y1="147.283" x2="276.062" y2="147.748" gradientUnits="userSpaceOnUse">
<stop stop-color="#FF9381"/>
<stop offset="1" stop-color="#FF7D65"/>
</linearGradient>
<linearGradient id="paint9_linear_4972_11655" x1="279.852" y1="170.691" x2="302.69" y2="234.235" gradientUnits="userSpaceOnUse">
<stop stop-color="#B17EF2"/>
<stop offset="0.0436877" stop-color="#9A63E1"/>
<stop offset="0.11761" stop-color="#9760DF"/>
<stop offset="0.190042" stop-color="#AA75F1"/>
<stop offset="0.214947" stop-color="#9962E0"/>
<stop offset="1" stop-color="#723EC7"/>
</linearGradient>
<linearGradient id="paint10_linear_4972_11655" x1="279.852" y1="170.691" x2="279.852" y2="234.056" gradientUnits="userSpaceOnUse">
<stop stop-color="#9C65E3"/>
<stop offset="1" stop-color="#723EC7"/>
</linearGradient>
<linearGradient id="paint11_linear_4972_11655" x1="287.663" y1="190.51" x2="289.485" y2="212.828" gradientUnits="userSpaceOnUse">
<stop stop-color="#FFC6AE"/>
<stop offset="0.67935" stop-color="#F4BEA8"/>
<stop offset="0.741121" stop-color="#E2A388"/>
<stop offset="0.857181" stop-color="#E2A388"/>
<stop offset="1" stop-color="#E4916E"/>
</linearGradient>
<linearGradient id="paint12_linear_4972_11655" x1="273.661" y1="173.894" x2="273.661" y2="235.708" gradientUnits="userSpaceOnUse">
<stop stop-color="#B587EF"/>
<stop offset="1" stop-color="#854BE4"/>
</linearGradient>
<linearGradient id="paint13_linear_4972_11655" x1="273.661" y1="173.894" x2="273.661" y2="235.708" gradientUnits="userSpaceOnUse">
<stop stop-color="#B587EF"/>
<stop offset="1" stop-color="#854BE4"/>
</linearGradient>
<radialGradient id="paint14_radial_4972_11655" cx="0" cy="0" r="1" gradientUnits="userSpaceOnUse" gradientTransform="translate(274.902 185.956) rotate(92.4468) scale(31.6127 32.5421)">
<stop stop-color="#FFECE4"/>
<stop offset="0.725231" stop-color="#FFD2BF"/>
<stop offset="0.732438" stop-color="#F0B39A"/>
<stop offset="1" stop-color="#F0B39A"/>
</radialGradient>
<clipPath id="clip0_4972_11655">
<path d="M180 98H315V175C315 202.614 292.614 225 265 225H180V98Z" fill="white"/>
</clipPath>
</defs>
</svg>
