<svg width="670" height="280" viewBox="0 0 990 280" fill="none" xmlns="http://www.w3.org/2000/svg">
<g filter="url(#filter0_ii_4972_11848)">
<rect width="670" height="280" rx="50" fill="url(#paint0_linear_4972_11848)"/>
</g>
<mask id="mask0_4972_11848" style="mask-type:alpha" maskUnits="userSpaceOnUse" x="0" y="0" width="670" height="280">
<rect width="670" height="280" rx="50" fill="#FCB13F"/>
</mask>
<g mask="url(#mask0_4972_11848)">
<path opacity="0.2" d="M336.581 275.972C396.354 371.913 478.455 381.811 521.709 374.596L273.431 631.601C195.774 581.99 28.9658 406.698 -64.3377 278.076C-180.967 117.299 -67.4131 -24.9769 -34.7713 81.3542C-6.99771 171.827 69.4362 210.012 147.562 188.84C225.689 167.668 289.457 200.333 336.581 275.972Z" fill="url(#paint1_linear_4972_11848)"/>
<path opacity="0.2" d="M514.898 272.176C505.265 338.198 463.206 362.97 438.108 369.299L633.164 449.563C663.427 404.366 712.176 270.114 732.212 178.487C757.257 63.9532 662.196 13.8689 669.693 79.0931C676.072 134.59 643.768 173.319 596.51 180.348C549.252 187.377 522.492 220.125 514.898 272.176Z" fill="url(#paint2_linear_4972_11848)"/>
<g filter="url(#filter1_f_4972_11848)">
<path d="M600.497 158.269C600.497 218.32 568.991 267 530.125 267C491.26 267 468 110.74 468 50.6891C468 -9.36127 536.892 50.6889 575.757 50.6889C614.623 50.6889 600.497 98.2188 600.497 158.269Z" fill="url(#paint3_linear_4972_11848)"/>
</g>
<g filter="url(#filter2_f_4972_11848)">
<path d="M512.937 281L312 254.5L405.657 228L608.164 255.001L512.937 281Z" fill="#F79C00"/>
</g>
<g filter="url(#filter3_f_4972_11848)">
<path d="M451.858 259.327L380.034 250.91L412.93 238.716L485.32 247.321L451.858 259.327Z" fill="#E39000"/>
</g>
<g filter="url(#filter4_f_4972_11848)">
<path d="M528.22 272.23L436 263.225L474.896 247.031L568.327 257.993L528.22 272.23Z" fill="#E39000"/>
</g>
</g>
<mask id="mask1_4972_11848" style="mask-type:alpha" maskUnits="userSpaceOnUse" x="300" y="24" width="293" height="293">
<rect x="300" y="24" width="293" height="293" fill="#C4C4C4"/>
</mask>
<g mask="url(#mask1_4972_11848)">
<path d="M463.552 29.5719C468.232 28.1049 473.243 29.6011 477.088 32.6453C495.324 47.0823 524.725 53.3944 542.542 56.0137C551.054 57.2649 557.748 64.4347 557.748 73.0378V152.462C557.748 205.095 510.69 225.769 484.279 233.227L483.986 233.312C483.098 233.579 482.229 233.832 481.381 234.072C481.033 234.173 480.688 234.271 480.348 234.367L479.926 234.489L479.824 234.518C479.012 234.761 478.217 234.992 477.44 235.211L476.969 235.347L476.786 235.4C475.883 235.67 475.001 235.924 474.141 236.165C473.75 236.28 473.363 236.392 472.98 236.501C472.167 236.745 471.37 236.976 470.591 237.196C470.263 237.291 469.938 237.384 469.616 237.475L469.31 237.563C468.416 237.832 467.541 238.087 466.687 238.328C466.359 238.423 466.034 238.516 465.711 238.607C465.382 238.702 465.056 238.795 464.732 238.887L464.424 238.976L464.169 239.049C463.546 239.235 462.932 239.415 462.328 239.587C461.964 239.694 461.602 239.799 461.245 239.901C460.437 240.142 459.644 240.373 458.87 240.591C458.54 240.687 458.213 240.78 457.888 240.872C457.56 240.967 457.235 241.06 456.913 241.15L456.486 241.273C455.633 241.53 454.797 241.773 453.981 242.003C453.738 242.073 453.497 242.142 453.257 242.211C452.945 242.301 452.636 242.39 452.329 242.478C451.56 242.707 450.806 242.926 450.068 243.134L449.614 243.265C449.43 243.318 449.246 243.37 449.063 243.421L448.809 243.494C447.907 243.766 447.024 244.023 446.163 244.267C445.835 244.361 445.51 244.454 445.188 244.545C438.521 246.474 433.07 247.578 429.866 248.141C427.807 248.503 425.756 248.376 423.761 247.749C408.074 242.818 335.811 216.566 335.811 151.343V76.2841C335.811 68.5905 340.385 61.6335 347.448 58.5837L371.272 48.2965C376.267 46.1398 381.723 45.286 387.16 45.4574C394.745 45.6965 406.739 45.6712 419.716 44.087C428.169 41.5227 447.641 34.5597 463.552 29.5719Z" fill="url(#paint4_linear_4972_11848)"/>
<path d="M434.239 45.4108C429.896 42.2295 423.733 42.0255 419.068 44.7123C400.96 55.1408 372.625 57.1976 354.183 57.2958C344.376 57.3481 336 65.1245 336 74.9313C336 89.2915 336 113.395 336 151.476C336 216.699 408.263 242.951 423.95 247.882C425.945 248.509 427.947 248.644 430.006 248.283C445.884 245.499 517.864 229.289 517.864 164.193C517.864 123.489 517.864 98.7542 517.864 84.8183C517.864 76.1885 511.146 69.0273 502.593 67.879C484.166 65.4049 453.29 59.3647 434.239 45.4108Z" fill="url(#paint5_linear_4972_11848)"/>
<g filter="url(#filter5_d_4972_11848)">
<path d="M400.429 111.274V189.046C400.429 190.687 399.27 192.101 397.661 192.422L390.884 193.778C390.501 193.854 390.108 193.865 389.722 193.81L379.089 192.291C377.393 192.049 376.133 190.596 376.133 188.882V110.923C376.133 109.343 377.208 107.965 378.741 107.582L383.608 106.366C384.02 106.262 384.448 106.237 384.87 106.289L397.413 107.857C399.136 108.073 400.429 109.537 400.429 111.274Z" fill="url(#paint6_linear_4972_11848)"/>
</g>
<path d="M376.131 188.707V110.914C376.131 108.843 377.946 107.24 380.002 107.497L389.312 108.661C391.035 108.876 392.328 110.341 392.328 112.078V189.871C392.328 191.942 390.513 193.545 388.458 193.288L379.147 192.124C377.424 191.908 376.131 190.443 376.131 188.707Z" fill="url(#paint7_linear_4972_11848)"/>
<g filter="url(#filter6_d_4972_11848)">
<path d="M431.613 135.573V191.327C431.613 192.968 430.455 194.382 428.845 194.703L422.068 196.059C421.685 196.135 421.292 196.146 420.906 196.091L410.274 194.572C408.577 194.33 407.317 192.877 407.317 191.163V135.222C407.317 133.642 408.392 132.264 409.925 131.881L414.792 130.664C415.204 130.561 415.632 130.535 416.054 130.588L428.597 132.156C430.32 132.371 431.613 133.836 431.613 135.573Z" fill="url(#paint8_linear_4972_11848)"/>
</g>
<path d="M407.318 191.132L407.32 135.176C407.32 133.104 409.136 131.502 411.191 131.759L420.501 132.922C422.224 133.138 423.518 134.603 423.518 136.339V192.528C423.518 194.599 421.702 196.202 419.647 195.945L410.335 194.549C408.612 194.333 407.318 192.868 407.318 191.132Z" fill="url(#paint9_linear_4972_11848)"/>
<g filter="url(#filter7_d_4972_11848)">
<path d="M462.793 98.1111V195.713C462.793 197.355 461.634 198.768 460.025 199.09L453.248 200.445C452.865 200.522 452.472 200.533 452.085 200.477L441.453 198.959C439.757 198.716 438.497 197.263 438.497 195.549V97.7599C438.497 96.1797 439.572 94.8022 441.105 94.419L445.971 93.2024C446.384 93.0993 446.812 93.0735 447.234 93.1262L459.776 94.694C461.5 94.9095 462.793 96.3744 462.793 98.1111Z" fill="url(#paint10_linear_4972_11848)"/>
</g>
<path d="M438.494 195.542V97.701C438.494 95.6297 440.309 94.027 442.364 94.2839L451.675 95.4477C453.398 95.6631 454.691 97.1281 454.691 98.8648L454.691 196.706C454.691 198.777 452.876 200.38 450.82 200.123L441.51 198.959C439.787 198.744 438.494 197.279 438.494 195.542Z" fill="url(#paint11_linear_4972_11848)"/>
<g opacity="0.4" filter="url(#filter8_i_4972_11848)">
<path d="M434.47 67.2922C429.994 64.2628 423.763 64.0509 418.965 66.538C403.328 74.6434 379.578 75.712 365.845 75.5549C359.996 75.488 355 80.1209 355 85.9706C355 96.7796 355 116.748 355 150.545C355 201.579 410.27 222.644 423.96 227.078C425.96 227.726 428.069 227.869 430.136 227.488C443.988 224.934 499 211.584 499 160.669C499 125.331 499 105.112 499 94.6731C499 89.3727 494.886 84.9828 489.624 84.3404C476.018 82.679 450.661 78.252 434.47 67.2922Z" stroke="url(#paint12_linear_4972_11848)" stroke-width="12"/>
</g>
<path d="M514.432 217.103L520.236 217.61C535.381 218.935 547.657 232.287 547.655 247.431V250.924C547.655 255.359 544.448 258.988 540.301 259.734C539.877 259.879 539.439 259.993 538.99 260.074C538.568 260.218 538.133 260.332 537.686 260.412C537.267 260.556 536.834 260.669 536.39 260.749C535.962 260.897 535.519 261.013 535.066 261.094C534.655 261.234 534.231 261.345 533.796 261.425C533.364 261.574 532.918 261.692 532.46 261.774C532.034 261.919 531.595 262.034 531.144 262.114C530.728 262.256 530.299 262.368 529.86 262.447C529.437 262.593 529.001 262.707 528.554 262.788C528.132 262.933 527.697 263.047 527.251 263.128C526.104 263.523 524.855 263.69 523.561 263.576L454.922 257.571C450.302 257.165 446.755 253.296 446.755 248.656V243.597C446.755 231.362 454.769 221.698 465.833 219.135C466.261 219.011 466.693 218.899 467.13 218.797C467.554 218.675 467.984 218.563 468.418 218.462C468.857 218.335 469.301 218.219 469.751 218.115C470.185 217.99 470.625 217.875 471.07 217.773C471.485 217.653 471.906 217.543 472.33 217.444C472.78 217.314 473.235 217.196 473.696 217.089C474.108 216.971 474.525 216.863 474.947 216.765C475.387 216.637 475.833 216.521 476.284 216.416C476.718 216.291 477.156 216.177 477.6 216.075C478.027 215.952 478.459 215.84 478.895 215.739C479.886 215.453 480.904 215.225 481.945 215.059C481.919 214.253 481.445 213.524 480.71 213.182C471.178 208.741 464.373 198.97 464.28 188.17C464.277 187.827 464.274 187.283 464.271 186.665C464.261 184.977 464.247 182.737 464.228 182.538C464.226 182.516 464.228 182.495 464.229 182.474C464.231 182.447 464.233 182.42 464.228 182.391C464.178 182.054 463.966 181.176 463.673 179.963C462.83 176.469 461.316 170.196 461.049 166.058C460.837 162.816 462.628 161.553 464.971 161.164C465.377 161.012 465.815 160.901 466.275 160.825C466.68 160.673 467.117 160.563 467.575 160.487C467.983 160.333 468.423 160.222 468.885 160.145C469.294 159.992 469.735 159.881 470.197 159.804C470.419 159.721 470.65 159.651 470.889 159.592C470.942 159.45 470.982 159.301 471.009 159.146C471.517 156.21 472.958 153.272 474.757 152.594C475.276 152.399 476.044 152.151 477.012 151.936C477.392 151.822 477.828 151.706 478.315 151.598C478.691 151.485 479.122 151.369 479.604 151.262C479.987 151.147 480.428 151.028 480.922 150.918C481.306 150.803 481.748 150.685 482.243 150.575C482.617 150.463 483.046 150.349 483.524 150.242C483.914 150.125 484.364 150.004 484.867 149.893C485.236 149.783 485.657 149.671 486.125 149.566C486.514 149.449 486.963 149.328 487.467 149.216C487.849 149.101 488.29 148.984 488.782 148.875C489.161 148.761 489.597 148.645 490.083 148.537C492.987 147.665 499.213 146.651 506.029 150.339C507.938 151.372 509.871 152.482 511.766 153.571C517.513 156.872 522.92 159.978 526.31 160.144C527.87 160.219 529.157 160.168 530.24 160.014C532.303 159.723 534.016 161.945 533.154 163.803C532.555 165.093 531.912 166.136 531.531 166.713C531.309 167.05 531.177 167.441 531.147 167.858L529.503 183.188V188.673C529.503 199.215 523.09 207.693 513.952 210.75C513.069 211.044 512.466 211.862 512.466 212.795V214.958C512.466 216.075 513.319 217.006 514.432 217.103Z" fill="url(#paint13_linear_4972_11848)"/>
<mask id="mask2_4972_11848" style="mask-type:alpha" maskUnits="userSpaceOnUse" x="446" y="147" width="102" height="117">
<path d="M514.432 217.105L520.236 217.612C535.381 218.937 547.657 232.288 547.655 247.433V250.926C547.655 255.361 544.448 258.99 540.301 259.736C539.877 259.881 539.439 259.995 538.99 260.076C538.568 260.22 538.133 260.334 537.686 260.414C537.267 260.558 536.834 260.671 536.39 260.751C535.962 260.899 535.519 261.015 535.066 261.096C534.655 261.236 534.231 261.347 533.796 261.427C533.364 261.576 532.918 261.693 532.46 261.776C532.034 261.921 531.595 262.036 531.144 262.116C530.728 262.258 530.299 262.37 529.86 262.449C529.437 262.595 529.001 262.709 528.554 262.79C528.132 262.935 527.697 263.049 527.251 263.13C526.104 263.525 524.855 263.692 523.561 263.578L454.922 257.573C450.302 257.167 446.755 253.298 446.755 248.658V243.599C446.755 231.364 454.769 221.7 465.833 219.137C466.261 219.013 466.693 218.901 467.13 218.799C467.554 218.677 467.984 218.565 468.418 218.464C468.857 218.337 469.301 218.221 469.751 218.117C470.185 217.991 470.625 217.877 471.07 217.775C471.485 217.655 471.906 217.545 472.33 217.446C472.78 217.316 473.235 217.198 473.696 217.091C474.108 216.973 474.525 216.865 474.947 216.766C475.387 216.639 475.833 216.523 476.284 216.418C476.718 216.293 477.156 216.179 477.6 216.077C478.027 215.954 478.459 215.842 478.895 215.741C479.886 215.455 480.904 215.227 481.945 215.061C481.919 214.255 481.445 213.526 480.71 213.184C471.178 208.743 464.373 198.972 464.28 188.172C464.277 187.828 464.274 187.284 464.271 186.667C464.261 184.979 464.247 182.739 464.228 182.54C464.226 182.518 464.228 182.497 464.229 182.476C464.231 182.449 464.233 182.422 464.228 182.393C464.178 182.056 463.966 181.178 463.673 179.965C462.83 176.471 461.316 170.198 461.049 166.06C460.837 162.818 462.628 161.555 464.971 161.166C465.377 161.014 465.815 160.903 466.275 160.827C466.68 160.675 467.117 160.565 467.575 160.488C467.983 160.335 468.423 160.224 468.885 160.147C469.294 159.994 469.735 159.883 470.197 159.806C470.419 159.723 470.65 159.653 470.889 159.594C470.942 159.452 470.982 159.303 471.009 159.148C471.517 156.212 472.958 153.274 474.757 152.596C475.276 152.401 476.044 152.153 477.012 151.938C477.392 151.824 477.828 151.708 478.315 151.6C478.691 151.487 479.122 151.371 479.604 151.264C479.987 151.148 480.428 151.03 480.922 150.92C481.306 150.805 481.748 150.687 482.243 150.577C482.617 150.465 483.046 150.351 483.524 150.244C483.914 150.127 484.364 150.006 484.867 149.895C485.236 149.785 485.657 149.673 486.125 149.568C486.514 149.45 486.963 149.33 487.467 149.218C487.849 149.103 488.29 148.986 488.782 148.877C489.161 148.763 489.597 148.647 490.083 148.539C492.987 147.667 499.213 146.653 506.029 150.341C507.938 151.374 509.871 152.484 511.766 153.573C517.513 156.874 522.92 159.98 526.31 160.146C527.87 160.221 529.157 160.169 530.24 160.016C532.303 159.724 534.016 161.947 533.154 163.805C532.555 165.095 531.912 166.138 531.531 166.715C531.309 167.052 531.177 167.443 531.147 167.86L529.503 183.19V188.675C529.503 199.216 523.09 207.695 513.952 210.752C513.069 211.045 512.466 211.864 512.466 212.797V214.96C512.466 216.076 513.319 217.008 514.432 217.105Z" fill="url(#paint14_linear_4972_11848)"/>
</mask>
<g mask="url(#mask2_4972_11848)">
<path d="M501.397 222.223L517.953 217.256L532.026 209.806L536.993 181.659L511.331 186.626L487.323 215.6L476.562 218.912L495.602 222.223H501.397Z" fill="url(#paint15_linear_4972_11848)"/>
</g>
<path d="M505.868 221.348L500.063 220.84C498.951 220.743 498.097 219.812 498.097 218.695V216.533C498.097 215.6 498.7 214.781 499.584 214.487C508.721 211.431 515.135 202.952 515.135 192.411V186.926L516.779 171.595C516.809 171.178 516.941 170.787 517.163 170.45C517.543 169.874 518.187 168.83 518.785 167.541C519.647 165.683 517.934 163.46 515.871 163.752C514.789 163.905 513.502 163.957 511.942 163.881C507.434 163.661 499.359 158.241 491.66 154.076C483.959 149.912 477.012 151.748 474.757 152.597C472.958 153.275 471.517 156.213 471.009 159.148C470.8 160.362 469.752 161.175 468.501 161.082C464.764 160.805 460.738 161.289 461.049 166.061C461.409 171.636 464.032 181.087 464.228 182.394C464.237 182.446 464.224 182.491 464.228 182.541C464.254 182.813 464.269 186.891 464.28 188.172C464.373 198.973 471.178 208.744 480.71 213.185C481.466 213.537 481.946 214.297 481.946 215.131V216.905C481.946 218.168 480.864 219.16 479.604 219.05L474.176 218.574C459.033 217.25 446.755 228.455 446.755 243.6V248.659C446.755 253.299 450.302 257.168 454.922 257.574C454.922 257.574 455.427 257.641 461.439 258.144C469.934 263.579 504.703 266.926 523.561 263.579C528.71 264.442 533.289 259.915 533.289 254.664V251.171C533.289 236.024 521.012 222.672 505.868 221.348Z" fill="url(#paint16_linear_4972_11848)"/>
<mask id="mask3_4972_11848" style="mask-type:alpha" maskUnits="userSpaceOnUse" x="446" y="151" width="88" height="114">
<path d="M505.868 221.347L500.063 220.839C498.951 220.742 498.097 219.811 498.097 218.694V216.532C498.097 215.599 498.7 214.78 499.584 214.486C508.721 211.43 515.135 202.951 515.135 192.41V186.925L516.779 171.594C516.809 171.177 516.941 170.786 517.163 170.449C517.543 169.873 518.187 168.829 518.785 167.54C519.647 165.682 517.934 163.459 515.871 163.751C514.789 163.904 513.502 163.956 511.942 163.88C507.434 163.66 499.359 158.24 491.66 154.075C483.959 149.911 477.012 151.747 474.757 152.596C472.958 153.274 471.517 156.212 471.009 159.148C470.8 160.362 469.752 161.174 468.501 161.081C464.764 160.804 460.738 161.288 461.049 166.06C461.409 171.635 464.032 181.086 464.228 182.393C464.237 182.445 464.224 182.49 464.228 182.54C464.254 182.812 464.269 186.89 464.28 188.171C464.373 198.972 471.178 208.743 480.71 213.184C481.466 213.536 481.946 214.296 481.946 215.13V216.904C481.946 218.167 480.864 219.159 479.604 219.049L474.176 218.573C459.033 217.249 446.755 228.454 446.755 243.599V248.658C446.755 253.298 450.302 257.167 454.922 257.573C454.922 257.573 455.427 257.64 461.439 258.143C469.934 263.578 504.703 266.925 523.561 263.578C528.71 264.441 533.289 259.915 533.289 254.663V251.17C533.289 236.023 521.012 222.671 505.868 221.347Z" fill="url(#paint17_linear_4972_11848)"/>
</mask>
<g mask="url(#mask3_4972_11848)">
<path d="M489.795 230.496C504.365 232.483 507.456 223.598 507.18 218.907C510.767 215.319 517.444 203.84 515.457 186.621C513.686 171.264 475.644 164.031 471.138 174.462C470.809 175.224 470.128 175.833 469.312 175.987C466.174 176.58 464.69 179.216 464.132 183.31C462.145 197.88 470.479 211.456 474.894 216.423C473.791 220.286 475.226 228.51 489.795 230.496Z" fill="url(#paint18_radial_4972_11848)"/>
</g>
<path fill-rule="evenodd" clip-rule="evenodd" d="M475.493 226.492C473.429 223.772 473.088 220.714 473.243 218.484L476.546 218.714C476.426 220.446 476.708 222.615 478.131 224.49C479.533 226.338 482.246 228.165 487.525 228.842C494.015 229.673 498.149 229.055 500.696 227.665C503.12 226.343 504.343 224.187 504.709 221.187L507.996 221.587C507.534 225.379 505.86 228.62 502.283 230.572C498.829 232.456 493.857 232.991 487.104 232.126C481.211 231.371 477.576 229.237 475.493 226.492Z" fill="#824DD2"/>
<path fill-rule="evenodd" clip-rule="evenodd" d="M482.924 191.892C482.924 189.835 481.256 188.167 479.198 188.167C477.141 188.167 475.473 189.835 475.473 191.892V194.072C475.473 196.129 477.141 197.797 479.198 197.797C481.256 197.797 482.924 196.129 482.924 194.072V191.892ZM499.994 192.746C499.994 190.689 498.327 189.021 496.269 189.021C494.212 189.021 492.544 190.689 492.544 192.746V194.899C492.544 196.957 494.212 198.625 496.269 198.625C498.327 198.625 499.994 196.957 499.994 194.899V192.746Z" fill="#9F75E2"/>
<path fill-rule="evenodd" clip-rule="evenodd" d="M456.938 257.745L458.305 244.081C458.327 243.865 458.422 243.663 458.575 243.51C459.139 242.947 460.103 243.296 460.176 244.089L461.453 258.144L456.938 257.745Z" fill="#6C39B9"/>
<path d="M529.814 195.537C529.814 199.868 527.649 200.95 523.319 202.033C518.988 203.115 517.906 203.115 517.906 203.115L520.071 198.785L518.988 190.125L524.401 189.042C526.205 189.403 529.814 191.207 529.814 195.537Z" fill="#EEB298"/>
<path d="M524.401 196.63C524.401 200.96 519.71 203.125 517.905 203.125C517.905 203.125 518.988 199.878 518.988 197.713V190.135C520.792 190.496 524.401 192.3 524.401 196.63Z" fill="#FFD2BF"/>
<path d="M461.603 192.231C461.603 196.561 464.913 199.809 470.708 198.981C470.708 198.981 469.052 195.351 469.052 193.186V185.735C464.085 185.735 461.603 187.9 461.603 192.231Z" fill="#FFD2BF"/>
</g>
<defs>
<filter id="filter0_ii_4972_11848" x="-30" y="-30" width="740" height="350" filterUnits="userSpaceOnUse" color-interpolation-filters="sRGB">
<feFlood flood-opacity="0" result="BackgroundImageFix"/>
<feBlend mode="normal" in="SourceGraphic" in2="BackgroundImageFix" result="shape"/>
<feColorMatrix in="SourceAlpha" type="matrix" values="0 0 0 0 0 0 0 0 0 0 0 0 0 0 0 0 0 0 127 0" result="hardAlpha"/>
<feOffset dx="-30" dy="-30"/>
<feGaussianBlur stdDeviation="45"/>
<feComposite in2="hardAlpha" operator="arithmetic" k2="-1" k3="1"/>
<feColorMatrix type="matrix" values="0 0 0 0 1 0 0 0 0 0.709804 0 0 0 0 0.215686 0 0 0 1 0"/>
<feBlend mode="normal" in2="shape" result="effect1_innerShadow_4972_11848"/>
<feColorMatrix in="SourceAlpha" type="matrix" values="0 0 0 0 0 0 0 0 0 0 0 0 0 0 0 0 0 0 127 0" result="hardAlpha"/>
<feOffset dx="40" dy="40"/>
<feGaussianBlur stdDeviation="50"/>
<feComposite in2="hardAlpha" operator="arithmetic" k2="-1" k3="1"/>
<feColorMatrix type="matrix" values="0 0 0 0 1 0 0 0 0 1 0 0 0 0 1 0 0 0 0.3 0"/>
<feBlend mode="normal" in2="effect1_innerShadow_4972_11848" result="effect2_innerShadow_4972_11848"/>
</filter>
<filter id="filter1_f_4972_11848" x="428" y="-16" width="215" height="323" filterUnits="userSpaceOnUse" color-interpolation-filters="sRGB">
<feFlood flood-opacity="0" result="BackgroundImageFix"/>
<feBlend mode="normal" in="SourceGraphic" in2="BackgroundImageFix" result="shape"/>
<feGaussianBlur stdDeviation="20" result="effect1_foregroundBlur_4972_11848"/>
</filter>
<filter id="filter2_f_4972_11848" x="290.068" y="206.068" width="340.029" height="96.8647" filterUnits="userSpaceOnUse" color-interpolation-filters="sRGB">
<feFlood flood-opacity="0" result="BackgroundImageFix"/>
<feBlend mode="normal" in="SourceGraphic" in2="BackgroundImageFix" result="shape"/>
<feGaussianBlur stdDeviation="10.9662" result="effect1_foregroundBlur_4972_11848"/>
</filter>
<filter id="filter3_f_4972_11848" x="368.034" y="226.717" width="129.286" height="44.6104" filterUnits="userSpaceOnUse" color-interpolation-filters="sRGB">
<feFlood flood-opacity="0" result="BackgroundImageFix"/>
<feBlend mode="normal" in="SourceGraphic" in2="BackgroundImageFix" result="shape"/>
<feGaussianBlur stdDeviation="6" result="effect1_foregroundBlur_4972_11848"/>
</filter>
<filter id="filter4_f_4972_11848" x="424" y="235.031" width="156.327" height="49.1982" filterUnits="userSpaceOnUse" color-interpolation-filters="sRGB">
<feFlood flood-opacity="0" result="BackgroundImageFix"/>
<feBlend mode="normal" in="SourceGraphic" in2="BackgroundImageFix" result="shape"/>
<feGaussianBlur stdDeviation="6" result="effect1_foregroundBlur_4972_11848"/>
</filter>
<filter id="filter5_d_4972_11848" x="376.133" y="100.263" width="36.2964" height="95.582" filterUnits="userSpaceOnUse" color-interpolation-filters="sRGB">
<feFlood flood-opacity="0" result="BackgroundImageFix"/>
<feColorMatrix in="SourceAlpha" type="matrix" values="0 0 0 0 0 0 0 0 0 0 0 0 0 0 0 0 0 0 127 0" result="hardAlpha"/>
<feOffset dx="8" dy="-2"/>
<feGaussianBlur stdDeviation="2"/>
<feComposite in2="hardAlpha" operator="out"/>
<feColorMatrix type="matrix" values="0 0 0 0 0.925 0 0 0 0 0.533831 0 0 0 0 0 0 0 0 0.4 0"/>
<feBlend mode="normal" in2="BackgroundImageFix" result="effect1_dropShadow_4972_11848"/>
<feBlend mode="normal" in="SourceGraphic" in2="effect1_dropShadow_4972_11848" result="shape"/>
</filter>
<filter id="filter6_d_4972_11848" x="407.317" y="124.562" width="36.2964" height="73.5645" filterUnits="userSpaceOnUse" color-interpolation-filters="sRGB">
<feFlood flood-opacity="0" result="BackgroundImageFix"/>
<feColorMatrix in="SourceAlpha" type="matrix" values="0 0 0 0 0 0 0 0 0 0 0 0 0 0 0 0 0 0 127 0" result="hardAlpha"/>
<feOffset dx="8" dy="-2"/>
<feGaussianBlur stdDeviation="2"/>
<feComposite in2="hardAlpha" operator="out"/>
<feColorMatrix type="matrix" values="0 0 0 0 0.783333 0 0 0 0 0.524757 0 0 0 0 0 0 0 0 0.5 0"/>
<feBlend mode="normal" in2="BackgroundImageFix" result="effect1_dropShadow_4972_11848"/>
<feBlend mode="normal" in="SourceGraphic" in2="effect1_dropShadow_4972_11848" result="shape"/>
</filter>
<filter id="filter7_d_4972_11848" x="438.497" y="87.0996" width="36.2964" height="115.412" filterUnits="userSpaceOnUse" color-interpolation-filters="sRGB">
<feFlood flood-opacity="0" result="BackgroundImageFix"/>
<feColorMatrix in="SourceAlpha" type="matrix" values="0 0 0 0 0 0 0 0 0 0 0 0 0 0 0 0 0 0 127 0" result="hardAlpha"/>
<feOffset dx="8" dy="-2"/>
<feGaussianBlur stdDeviation="2"/>
<feComposite in2="hardAlpha" operator="out"/>
<feColorMatrix type="matrix" values="0 0 0 0 0.913725 0 0 0 0 0.568627 0 0 0 0 0.109804 0 0 0 0.4 0"/>
<feBlend mode="normal" in2="BackgroundImageFix" result="effect1_dropShadow_4972_11848"/>
<feBlend mode="normal" in="SourceGraphic" in2="effect1_dropShadow_4972_11848" result="shape"/>
</filter>
<filter id="filter8_i_4972_11848" x="349" y="57.8311" width="159" height="175.866" filterUnits="userSpaceOnUse" color-interpolation-filters="sRGB">
<feFlood flood-opacity="0" result="BackgroundImageFix"/>
<feBlend mode="normal" in="SourceGraphic" in2="BackgroundImageFix" result="shape"/>
<feColorMatrix in="SourceAlpha" type="matrix" values="0 0 0 0 0 0 0 0 0 0 0 0 0 0 0 0 0 0 127 0" result="hardAlpha"/>
<feOffset dx="3" dy="-1"/>
<feGaussianBlur stdDeviation="5"/>
<feComposite in2="hardAlpha" operator="arithmetic" k2="-1" k3="1"/>
<feColorMatrix type="matrix" values="0 0 0 0 0.929167 0 0 0 0 0.49848 0 0 0 0 0 0 0 0 0.6 0"/>
<feBlend mode="normal" in2="shape" result="effect1_innerShadow_4972_11848"/>
</filter>
<linearGradient id="paint0_linear_4972_11848" x1="223.333" y1="89.5" x2="238.209" y2="287.28" gradientUnits="userSpaceOnUse">
<stop stop-color="#FFC74E"/>
<stop offset="1" stop-color="#FFBC39"/>
</linearGradient>
<linearGradient id="paint1_linear_4972_11848" x1="104" y1="192.001" x2="88.611" y2="289.414" gradientUnits="userSpaceOnUse">
<stop stop-color="white"/>
<stop offset="1" stop-color="white" stop-opacity="0"/>
</linearGradient>
<linearGradient id="paint2_linear_4972_11848" x1="627" y1="184.001" x2="673.146" y2="259.238" gradientUnits="userSpaceOnUse">
<stop stop-color="white"/>
<stop offset="1" stop-color="white" stop-opacity="0"/>
</linearGradient>
<linearGradient id="paint3_linear_4972_11848" x1="535.5" y1="24" x2="535.5" y2="267" gradientUnits="userSpaceOnUse">
<stop stop-color="#F5AB00" stop-opacity="0.4"/>
<stop offset="0.78125" stop-color="#F29E00"/>
</linearGradient>
<linearGradient id="paint4_linear_4972_11848" x1="465" y1="9" x2="551.5" y2="220" gradientUnits="userSpaceOnUse">
<stop offset="0.0706005" stop-color="#FFE9A7"/>
<stop offset="0.11928" stop-color="#FEC93A"/>
<stop offset="0.200497" stop-color="#FEC538"/>
<stop offset="0.318331" stop-color="#FFD26A"/>
<stop offset="0.388922" stop-color="#F8A800"/>
<stop offset="0.597005" stop-color="#F7A500"/>
<stop offset="0.817395" stop-color="#F09200"/>
<stop offset="1" stop-color="#CB6F00"/>
</linearGradient>
<linearGradient id="paint5_linear_4972_11848" x1="362.5" y1="55.5" x2="426.932" y2="248.766" gradientUnits="userSpaceOnUse">
<stop stop-color="#FFDC62"/>
<stop offset="1" stop-color="#FF9B00"/>
</linearGradient>
<linearGradient id="paint6_linear_4972_11848" x1="389.325" y1="104.772" x2="396" y2="170.5" gradientUnits="userSpaceOnUse">
<stop offset="0.0550988" stop-color="#D1FFFC"/>
<stop offset="0.143721" stop-color="#00D2B9"/>
<stop offset="1" stop-color="#00AF95"/>
</linearGradient>
<linearGradient id="paint7_linear_4972_11848" x1="376" y1="108.5" x2="382" y2="193" gradientUnits="userSpaceOnUse">
<stop stop-color="#7FF4E2"/>
<stop offset="1" stop-color="#00D2B2"/>
</linearGradient>
<linearGradient id="paint8_linear_4972_11848" x1="420" y1="131" x2="423.5" y2="176" gradientUnits="userSpaceOnUse">
<stop offset="0.0449419" stop-color="#FFDBDB"/>
<stop offset="0.113677" stop-color="#EF657E"/>
<stop offset="1" stop-color="#E74751"/>
</linearGradient>
<linearGradient id="paint9_linear_4972_11848" x1="412.5" y1="133" x2="415" y2="193.5" gradientUnits="userSpaceOnUse">
<stop stop-color="#FF9EA4"/>
<stop offset="0.326564" stop-color="#FF7A85"/>
<stop offset="1" stop-color="#FF566A"/>
</linearGradient>
<linearGradient id="paint10_linear_4972_11848" x1="451.686" y1="91.4293" x2="457.5" y2="184" gradientUnits="userSpaceOnUse">
<stop offset="0.0367879" stop-color="#D9EAFF"/>
<stop offset="0.0791209" stop-color="#70ACF9"/>
<stop offset="1" stop-color="#3468EC"/>
</linearGradient>
<linearGradient id="paint11_linear_4972_11848" x1="446.602" y1="94.2568" x2="446.602" y2="185.666" gradientUnits="userSpaceOnUse">
<stop stop-color="#79B5FC"/>
<stop offset="1" stop-color="#588CF0"/>
</linearGradient>
<linearGradient id="paint12_linear_4972_11848" x1="427" y1="61" x2="426.89" y2="242.152" gradientUnits="userSpaceOnUse">
<stop offset="0.0489137" stop-color="#FFA100"/>
<stop offset="1" stop-color="#FF8900" stop-opacity="0"/>
</linearGradient>
<linearGradient id="paint13_linear_4972_11848" x1="501.274" y1="145.633" x2="542.784" y2="261.128" gradientUnits="userSpaceOnUse">
<stop stop-color="#B17EF2"/>
<stop offset="0.0436877" stop-color="#9A63E1"/>
<stop offset="0.11761" stop-color="#9760DF"/>
<stop offset="0.190042" stop-color="#AA75F1"/>
<stop offset="0.214947" stop-color="#9962E0"/>
<stop offset="1" stop-color="#723EC7"/>
</linearGradient>
<linearGradient id="paint14_linear_4972_11848" x1="501.274" y1="145.635" x2="501.274" y2="260.806" gradientUnits="userSpaceOnUse">
<stop stop-color="#9C65E3"/>
<stop offset="1" stop-color="#723EC7"/>
</linearGradient>
<linearGradient id="paint15_linear_4972_11848" x1="515.47" y1="181.659" x2="518.781" y2="222.223" gradientUnits="userSpaceOnUse">
<stop stop-color="#FFC6AE"/>
<stop offset="0.67935" stop-color="#F4BEA8"/>
<stop offset="0.741121" stop-color="#E2A388"/>
<stop offset="0.857181" stop-color="#E2A388"/>
<stop offset="1" stop-color="#E4916E"/>
</linearGradient>
<linearGradient id="paint16_linear_4972_11848" x1="490.022" y1="151.454" x2="490.022" y2="263.805" gradientUnits="userSpaceOnUse">
<stop stop-color="#B587EF"/>
<stop offset="1" stop-color="#854BE4"/>
</linearGradient>
<linearGradient id="paint17_linear_4972_11848" x1="490.022" y1="151.453" x2="490.022" y2="263.804" gradientUnits="userSpaceOnUse">
<stop stop-color="#B587EF"/>
<stop offset="1" stop-color="#854BE4"/>
</linearGradient>
<radialGradient id="paint18_radial_4972_11848" cx="0" cy="0" r="1" gradientUnits="userSpaceOnUse" gradientTransform="translate(492.278 173.376) rotate(92.4468) scale(57.4579 59.1473)">
<stop stop-color="#FFECE4"/>
<stop offset="0.725231" stop-color="#FFD2BF"/>
<stop offset="0.732438" stop-color="#F0B39A"/>
<stop offset="1" stop-color="#F0B39A"/>
</radialGradient>
</defs>
</svg>
