<svg width="315" height="440" viewBox="0 0 315 440" fill="none" xmlns="http://www.w3.org/2000/svg">
<g filter="url(#filter0_ii_4972_11761)">
<path d="M1.39876e-05 80C9.09151e-06 51.9974 6.64344e-06 37.9961 5.44968 27.3005C10.2433 17.8924 17.8924 10.2433 27.3005 5.44967C37.9961 -6.64344e-06 51.9974 -9.09151e-06 80 -1.39876e-05L235 -4.10887e-05C263.003 -4.59848e-05 277.004 -4.84329e-05 287.699 5.44962C297.108 10.2433 304.757 17.8923 309.55 27.3004C315 37.996 315 51.9973 315 80L315 360C315 388.003 315 402.004 309.55 412.699C304.757 422.108 297.108 429.757 287.7 434.55C277.004 440 263.003 440 235 440L80.0001 440C51.9975 440 37.9961 440 27.3006 434.55C17.8924 429.757 10.2434 422.108 5.44975 412.7C7.02886e-05 402.004 6.78405e-05 388.003 6.29444e-05 360L1.39876e-05 80Z" fill="url(#paint0_linear_4972_11761)"/>
</g>
<path opacity="0.08" d="M162 164.5L115.855 118.355C96.3291 98.8291 64.6709 98.8291 45.1447 118.355L0 163.5V236L66.3579 169.642C74.1684 161.832 86.8316 161.832 94.6421 169.642L195.786 270.786C214.129 289.129 243.871 289.129 262.214 270.786C269.552 263.448 281.448 263.448 288.786 270.786L315 297V224.5L308.714 218.214C290.371 199.871 260.629 199.871 242.286 218.214C234.948 225.552 223.052 225.552 215.714 218.214L162 164.5Z" fill="#007C32"/>
<g clip-path="url(#clip0_4972_11761)">
<mask id="mask0_4972_11761" style="mask-type:alpha" maskUnits="userSpaceOnUse" x="27" y="142" width="326" height="325">
<rect x="27.731" y="142" width="324.739" height="324.739" fill="#C4C4C4"/>
</mask>
<g mask="url(#mask0_4972_11761)">
<g opacity="0.4" filter="url(#filter1_f_4972_11761)">
<path d="M228.216 410.164L63.8135 393.349L140.442 376.534L306.128 393.667L228.216 410.164Z" fill="#006844"/>
</g>
<g filter="url(#filter2_f_4972_11761)">
<path d="M272.821 427.048L190.101 419.832L228.657 412.615L312.024 419.968L272.821 427.048Z" fill="#006742"/>
</g>
</g>
<g clip-path="url(#clip1_4972_11761)">
<g filter="url(#filter3_d_4972_11761)">
<path fill-rule="evenodd" clip-rule="evenodd" d="M191.2 171.446C181.177 170.328 171.507 170.853 162.405 172.817C162.238 172.852 162.072 172.887 161.906 172.923C161.763 172.953 161.621 172.984 161.478 173.014C161.323 173.047 161.169 173.08 161.014 173.113C160.803 173.157 160.593 173.203 160.383 173.248C160.131 173.3 159.88 173.353 159.629 173.407C159.398 173.456 159.166 173.506 158.935 173.556C158.69 173.607 158.446 173.658 158.203 173.711L157.814 173.794C157.552 173.849 157.291 173.905 157.03 173.962L156.936 173.982C156.784 174.014 156.633 174.046 156.481 174.079C156.286 174.119 156.09 174.161 155.896 174.203C155.754 174.233 155.612 174.263 155.47 174.294C155.316 174.326 155.162 174.359 155.009 174.392C154.841 174.427 154.673 174.463 154.506 174.499C154.364 174.529 154.222 174.559 154.08 174.59C153.876 174.633 153.672 174.676 153.468 174.721C153.21 174.774 152.952 174.828 152.695 174.884C152.528 174.919 152.36 174.955 152.193 174.991C152.051 175.021 151.909 175.051 151.767 175.081C151.532 175.131 151.298 175.181 151.063 175.232L150.848 175.279C150.681 175.314 150.514 175.349 150.347 175.385L150.04 175.451C149.863 175.488 149.686 175.525 149.509 175.563C149.339 175.599 149.169 175.635 148.999 175.671L148.736 175.727C148.432 175.79 148.129 175.855 147.826 175.921L147.61 175.967C147.455 176 147.3 176.033 147.145 176.066C146.978 176.102 146.811 176.137 146.644 176.173L146.382 176.229C146.175 176.272 145.968 176.316 145.761 176.36C145.525 176.41 145.289 176.46 145.053 176.512L145.041 176.515C144.736 176.578 144.432 176.643 144.129 176.709L143.914 176.755C143.759 176.788 143.604 176.821 143.449 176.854L143.308 176.884C142.981 176.951 142.654 177.021 142.328 177.092L142.064 177.148L141.84 177.196C141.591 177.247 141.343 177.3 141.096 177.353C140.872 177.4 140.649 177.448 140.426 177.497L140.211 177.543C140.007 177.586 139.803 177.629 139.599 177.674C139.247 177.746 138.896 177.821 138.546 177.898L138.369 177.936L138.144 177.983C137.895 178.035 137.647 178.087 137.399 178.141C137.176 178.188 136.953 178.236 136.731 178.284L136.515 178.331L136.374 178.36C136.14 178.409 135.906 178.458 135.672 178.508C135.394 178.566 135.117 178.625 134.84 178.686C134.627 178.731 134.414 178.776 134.201 178.822C133.964 178.871 133.729 178.922 133.493 178.973C133.328 179.009 133.162 179.044 132.997 179.081L132.82 179.119L132.761 179.131C132.471 179.19 132.182 179.251 131.893 179.314C131.655 179.364 131.417 179.415 131.179 179.467C130.954 179.513 130.729 179.561 130.504 179.61C130.349 179.642 130.195 179.675 130.04 179.708C129.822 179.754 129.604 179.801 129.387 179.848C129.158 179.895 128.929 179.944 128.701 179.993C128.45 180.045 128.199 180.099 127.948 180.154L127.696 180.208C127.555 180.238 127.413 180.268 127.272 180.298C127.117 180.331 126.963 180.364 126.808 180.397C126.653 180.43 126.498 180.463 126.343 180.496C126.094 180.548 125.846 180.602 125.598 180.656C85.6476 189.188 56.5972 225.423 56.5972 272.105C56.5972 329.364 100.304 380.663 154.223 386.682C164.36 387.814 174.136 387.265 183.328 385.246C183.386 385.234 183.444 385.221 183.503 385.209C183.716 385.164 183.929 385.118 184.141 385.072L184.208 385.058L184.501 384.996C184.854 384.924 185.205 384.849 185.556 384.773L185.799 384.721C185.953 384.688 186.108 384.655 186.263 384.622C186.516 384.569 186.769 384.514 187.021 384.459L187.141 384.433C187.314 384.397 187.486 384.36 187.659 384.323C187.823 384.288 187.987 384.253 188.151 384.218C188.45 384.157 188.749 384.094 189.048 384.029L189.253 383.986L189.488 383.936C189.639 383.904 189.789 383.872 189.939 383.84C190.201 383.785 190.463 383.729 190.724 383.671L191.124 383.585L191.245 383.559C191.687 383.469 192.128 383.376 192.567 383.28L192.699 383.251C192.865 383.216 193.031 383.181 193.196 383.145C193.356 383.112 193.515 383.078 193.674 383.044C193.903 382.995 194.133 382.946 194.362 382.896L194.516 382.863C194.968 382.771 195.419 382.676 195.868 382.577C196.047 382.539 196.226 382.501 196.405 382.463C196.715 382.398 197.025 382.331 197.334 382.263L197.346 382.26C197.517 382.224 197.688 382.188 197.859 382.151C198.016 382.117 198.173 382.084 198.33 382.05L198.662 381.979C199.081 381.894 199.499 381.806 199.916 381.715L200.133 381.668C200.279 381.638 200.424 381.607 200.569 381.575C200.731 381.541 200.892 381.507 201.054 381.472C201.229 381.435 201.404 381.398 201.579 381.36C201.954 381.283 202.328 381.204 202.701 381.122L202.883 381.083L203.243 381.007L203.598 380.93L203.838 380.879C204.057 380.833 204.276 380.786 204.495 380.738L204.561 380.724L204.903 380.652L205.272 380.573C205.613 380.503 205.952 380.431 206.291 380.358L206.436 380.327C206.581 380.297 206.727 380.266 206.873 380.235C207.02 380.203 207.167 380.172 207.314 380.139L207.54 380.091C207.69 380.059 207.84 380.027 207.99 379.995C208.197 379.952 208.405 379.907 208.611 379.862C208.871 379.809 209.13 379.754 209.388 379.698C209.536 379.667 209.685 379.635 209.833 379.603C209.992 379.57 210.151 379.536 210.309 379.502C210.535 379.455 210.76 379.406 210.985 379.357L211.219 379.307C211.458 379.257 211.697 379.206 211.935 379.153L212.214 379.095C212.564 379.023 212.913 378.949 213.261 378.874L213.498 378.823C213.702 378.78 213.906 378.737 214.109 378.692C214.326 378.647 214.542 378.6 214.758 378.553L214.88 378.526C215.022 378.497 215.163 378.467 215.305 378.436C215.715 378.353 216.124 378.267 216.532 378.177L216.768 378.127C216.939 378.091 217.111 378.054 217.282 378.017C217.508 377.97 217.733 377.921 217.959 377.872L218.152 377.831C218.302 377.799 218.453 377.767 218.604 377.734C218.777 377.698 218.951 377.661 219.124 377.624C259.437 369.369 288.83 332.983 288.83 286.028C288.83 228.768 245.119 177.466 191.2 171.446ZM191.2 351.065C151.709 346.658 119.694 309.084 119.694 267.144C119.694 240.316 132.793 218.2 152.57 206.899C153.119 206.947 153.67 207.002 154.223 207.063C193.714 211.471 225.729 249.044 225.729 290.985C225.729 317.813 212.63 339.929 192.854 351.23C192.304 351.182 191.753 351.127 191.2 351.065Z" fill="url(#paint1_linear_4972_11761)"/>
<g opacity="0.8" filter="url(#filter4_ii_4972_11761)">
<path d="M119.739 217.774C126.95 210.555 141.989 203.942 148.605 203.341H182.885L211.751 221.382L231.596 275.505L224.378 342.257C214.155 345.264 184.327 358.494 161.235 351.277C134.173 345.865 105.306 320.608 101.698 280.917C98.0896 241.227 112.53 224.99 119.739 217.774Z" fill="url(#paint2_radial_4972_11761)"/>
</g>
<path d="M319.159 378.528C317.588 378.752 314.362 379.329 311.618 377.787L262.648 350.967C256.255 347.362 256.646 341.198 260.484 335.022C264.321 328.843 270.153 324.993 276.546 328.598L325.515 355.414C331.909 359.019 331.902 365.554 328.064 371.729C325.873 375.261 322.049 378.115 319.159 378.528Z" fill="url(#paint3_linear_4972_11761)"/>
<mask id="mask1_4972_11761" style="mask-type:alpha" maskUnits="userSpaceOnUse" x="292" y="346" width="39" height="33">
<path d="M319.162 378.528C317.59 378.752 314.365 379.328 311.621 377.786L297.461 369.868C291.067 366.263 291.458 360.098 295.296 353.923C299.134 347.744 304.965 343.894 311.359 347.498L325.518 355.413C331.912 359.018 331.905 365.554 328.067 371.729C325.876 375.261 322.052 378.115 319.162 378.528Z" fill="url(#paint4_linear_4972_11761)"/>
</mask>
<g mask="url(#mask1_4972_11761)">
<g filter="url(#filter5_f_4972_11761)">
<path d="M317.966 380.547C315.031 374.869 319.562 367.247 324.013 363.423C335.363 353.672 346.247 370.41 339.062 379.567C331.877 388.723 320.9 386.226 317.966 380.547Z" fill="#169375"/>
</g>
</g>
<path d="M154.223 356.687C114.732 352.276 82.7165 317.054 82.7165 275.117C82.7165 230.4 110.72 202.304 154.223 207.159C188.297 210.962 218.967 250.245 218.967 289.935C218.967 329.626 188.297 360.494 154.223 356.687ZM154.223 179.416C100.304 173.4 56.5972 214.938 56.5972 272.201C56.5972 329.464 100.304 381.337 154.223 387.357C208.142 393.377 251.849 351.257 251.849 293.997C251.849 236.738 208.138 185.436 154.223 179.416Z" fill="url(#paint5_linear_4972_11761)"/>
</g>
<path d="M136.013 259.3V315.69C136.013 317.155 134.979 318.417 133.543 318.704L127.494 319.914C127.152 319.982 126.802 319.992 126.457 319.943L116.967 318.587C115.453 318.371 114.328 317.074 114.328 315.544V258.987C114.328 257.576 115.288 256.347 116.656 256.005L121 254.919C121.368 254.827 121.75 254.804 122.126 254.851L133.321 256.25C134.859 256.442 136.013 257.75 136.013 259.3Z" fill="url(#paint6_linear_4972_11761)"/>
<path d="M114.328 315.495V258.938C114.328 257.09 115.948 255.659 117.783 255.888L126.093 256.927C127.631 257.119 128.785 258.427 128.785 259.977V316.533C128.785 318.382 127.165 319.812 125.33 319.583L117.021 318.544C115.482 318.352 114.328 317.045 114.328 315.495Z" fill="url(#paint7_linear_4972_11761)"/>
<path d="M163.845 280.998V318.178C163.845 319.643 162.811 320.904 161.375 321.191L155.326 322.401C154.984 322.47 154.634 322.479 154.289 322.43L144.799 321.074C143.285 320.858 142.16 319.561 142.16 318.032V280.685C142.16 279.274 143.12 278.045 144.488 277.703L148.832 276.617C149.2 276.525 149.582 276.502 149.958 276.549L161.153 277.948C162.691 278.141 163.845 279.448 163.845 280.998Z" fill="url(#paint8_linear_4972_11761)"/>
<path d="M142.162 317.982V280.637C142.162 278.788 143.782 277.357 145.617 277.587L153.927 278.625C155.465 278.818 156.619 280.125 156.619 281.675V319.021C156.619 320.87 154.999 322.3 153.164 322.071L144.854 321.032C143.316 320.84 142.162 319.532 142.162 317.982Z" fill="url(#paint9_linear_4972_11761)"/>
<path d="M191.676 247.558V321.791C191.676 323.256 190.642 324.517 189.206 324.804L183.157 326.014C182.816 326.082 182.465 326.092 182.12 326.043L172.63 324.687C171.116 324.471 169.991 323.174 169.991 321.645V247.244C169.991 245.834 170.951 244.605 172.319 244.263L176.663 243.177C177.031 243.085 177.413 243.062 177.789 243.109L188.984 244.508C190.522 244.7 191.676 246.008 191.676 247.558Z" fill="url(#paint10_linear_4972_11761)"/>
<path d="M169.988 321.597V247.198C169.988 245.349 171.609 243.919 173.443 244.148L181.753 245.187C183.291 245.379 184.445 246.687 184.445 248.237V322.636C184.445 324.484 182.825 325.915 180.99 325.686L172.681 324.647C171.143 324.455 169.988 323.147 169.988 321.597Z" fill="url(#paint11_linear_4972_11761)"/>
</g>
<path d="M265.108 370.449L271.541 371.012C288.326 372.479 301.932 387.278 301.93 404.063V407.934C301.93 412.849 298.376 416.871 293.779 417.698C293.31 417.859 292.824 417.986 292.327 418.075C291.859 418.235 291.377 418.361 290.882 418.45C290.417 418.609 289.937 418.735 289.445 418.824C288.97 418.987 288.48 419.116 287.977 419.206C287.521 419.361 287.052 419.484 286.57 419.572C286.091 419.738 285.596 419.868 285.089 419.959C284.617 420.121 284.13 420.247 283.63 420.336C283.17 420.494 282.694 420.618 282.207 420.706C281.739 420.867 281.255 420.994 280.76 421.084C280.293 421.244 279.81 421.371 279.316 421.46C278.044 421.898 276.66 422.083 275.227 421.957L199.152 415.301C194.031 414.851 190.1 410.563 190.1 405.421V399.814C190.1 386.253 198.982 375.542 211.245 372.701C211.719 372.565 212.198 372.44 212.682 372.328C213.153 372.192 213.629 372.068 214.11 371.956C214.596 371.815 215.089 371.686 215.587 371.571C216.069 371.432 216.556 371.305 217.049 371.192C217.51 371.059 217.975 370.938 218.446 370.828C218.944 370.683 219.449 370.552 219.959 370.434C220.416 370.303 220.879 370.183 221.346 370.074C221.834 369.933 222.328 369.804 222.828 369.688C223.308 369.55 223.794 369.424 224.286 369.31C224.759 369.174 225.238 369.049 225.722 368.937C226.82 368.621 227.948 368.368 229.102 368.184C229.073 367.29 228.548 366.483 227.734 366.104C217.168 361.182 209.627 350.353 209.524 338.382C209.521 338.002 209.517 337.399 209.513 336.714C209.502 334.843 209.487 332.361 209.466 332.14C209.464 332.116 209.466 332.093 209.468 332.069C209.47 332.039 209.472 332.01 209.466 331.978C209.41 331.604 209.175 330.631 208.851 329.286C207.917 325.414 206.239 318.462 205.942 313.875C205.708 310.282 207.693 308.883 210.289 308.451C210.739 308.282 211.225 308.16 211.735 308.075C212.184 307.907 212.668 307.785 213.176 307.7C213.628 307.53 214.116 307.407 214.628 307.321C215.08 307.152 215.569 307.029 216.081 306.944C216.327 306.852 216.583 306.774 216.848 306.708C216.907 306.552 216.952 306.387 216.982 306.214C217.544 302.96 219.141 299.704 221.136 298.953C221.711 298.736 222.562 298.461 223.635 298.223C224.056 298.097 224.539 297.968 225.079 297.848C225.495 297.723 225.974 297.595 226.508 297.476C226.932 297.348 227.421 297.217 227.968 297.096C228.394 296.968 228.884 296.837 229.432 296.715C229.847 296.591 230.322 296.464 230.853 296.346C231.284 296.216 231.783 296.083 232.341 295.959C232.749 295.837 233.216 295.713 233.735 295.597C234.166 295.466 234.664 295.333 235.222 295.209C235.646 295.081 236.134 294.951 236.68 294.831C237.1 294.704 237.583 294.576 238.122 294.456C241.341 293.49 248.24 292.366 255.795 296.453C257.911 297.598 260.053 298.828 262.153 300.035C268.523 303.694 274.516 307.137 278.273 307.32C280.002 307.404 281.429 307.347 282.628 307.177C284.915 306.853 286.813 309.317 285.858 311.376C285.195 312.805 284.481 313.962 284.06 314.601C283.813 314.974 283.667 315.408 283.634 315.87L281.812 332.861V338.94C281.812 350.623 274.704 360.02 264.576 363.408C263.597 363.734 262.929 364.641 262.929 365.675V368.072C262.929 369.31 263.875 370.341 265.108 370.449Z" fill="url(#paint12_linear_4972_11761)"/>
<mask id="mask2_4972_11761" style="mask-type:alpha" maskUnits="userSpaceOnUse" x="190" y="293" width="112" height="129">
<path d="M265.108 370.449L271.541 371.012C288.326 372.479 301.932 387.278 301.93 404.063V407.934C301.93 412.849 298.376 416.871 293.779 417.698C293.31 417.859 292.824 417.986 292.327 418.075C291.859 418.235 291.377 418.361 290.882 418.45C290.417 418.609 289.937 418.735 289.445 418.824C288.97 418.987 288.48 419.116 287.977 419.206C287.521 419.361 287.052 419.484 286.57 419.572C286.091 419.738 285.596 419.868 285.089 419.959C284.617 420.121 284.13 420.247 283.63 420.336C283.17 420.494 282.694 420.618 282.207 420.706C281.739 420.867 281.255 420.994 280.76 421.084C280.293 421.244 279.81 421.371 279.316 421.46C278.044 421.898 276.66 422.083 275.227 421.957L199.152 415.301C194.031 414.851 190.1 410.563 190.1 405.421V399.814C190.1 386.253 198.982 375.542 211.245 372.701C211.719 372.565 212.198 372.44 212.682 372.328C213.153 372.192 213.629 372.068 214.11 371.956C214.596 371.815 215.089 371.686 215.587 371.571C216.069 371.432 216.556 371.305 217.049 371.192C217.51 371.059 217.975 370.938 218.446 370.828C218.944 370.683 219.449 370.552 219.959 370.434C220.416 370.303 220.879 370.183 221.346 370.074C221.834 369.933 222.328 369.804 222.828 369.688C223.308 369.55 223.794 369.424 224.286 369.31C224.759 369.174 225.238 369.049 225.722 368.937C226.82 368.621 227.948 368.368 229.102 368.184C229.073 367.29 228.548 366.483 227.734 366.104C217.168 361.182 209.627 350.353 209.524 338.382C209.521 338.002 209.517 337.399 209.513 336.714C209.502 334.843 209.487 332.361 209.466 332.14C209.464 332.116 209.466 332.093 209.468 332.069C209.47 332.039 209.472 332.01 209.466 331.978C209.41 331.604 209.175 330.631 208.851 329.286C207.917 325.414 206.239 318.462 205.942 313.875C205.708 310.282 207.693 308.883 210.289 308.451C210.739 308.282 211.225 308.16 211.735 308.075C212.184 307.907 212.668 307.785 213.176 307.7C213.628 307.53 214.116 307.407 214.628 307.321C215.08 307.152 215.569 307.029 216.081 306.944C216.327 306.852 216.583 306.774 216.848 306.708C216.907 306.552 216.952 306.387 216.982 306.214C217.544 302.96 219.141 299.704 221.136 298.953C221.711 298.736 222.562 298.461 223.635 298.223C224.056 298.097 224.539 297.968 225.079 297.848C225.495 297.723 225.974 297.595 226.508 297.476C226.932 297.348 227.421 297.217 227.968 297.096C228.394 296.968 228.884 296.837 229.432 296.715C229.847 296.591 230.322 296.464 230.853 296.346C231.284 296.216 231.783 296.083 232.341 295.959C232.749 295.837 233.216 295.713 233.735 295.597C234.166 295.466 234.664 295.333 235.222 295.209C235.646 295.081 236.134 294.951 236.68 294.831C237.1 294.704 237.583 294.576 238.122 294.456C241.341 293.49 248.24 292.366 255.795 296.453C257.911 297.598 260.053 298.828 262.153 300.035C268.523 303.694 274.516 307.137 278.273 307.32C280.002 307.404 281.429 307.347 282.628 307.177C284.915 306.853 286.813 309.317 285.858 311.376C285.195 312.805 284.481 313.962 284.06 314.601C283.813 314.974 283.667 315.408 283.634 315.87L281.812 332.861V338.94C281.812 350.623 274.704 360.02 264.576 363.408C263.597 363.734 262.929 364.641 262.929 365.675V368.072C262.929 369.31 263.875 370.341 265.108 370.449Z" fill="url(#paint13_linear_4972_11761)"/>
</mask>
<g mask="url(#mask2_4972_11761)">
<path d="M250.656 376.122L269.006 370.617L284.604 362.359L290.109 331.164L261.666 336.669L235.058 368.782L223.131 372.452L244.234 376.122H250.656Z" fill="url(#paint14_linear_4972_11761)"/>
</g>
<path d="M255.616 375.155L249.183 374.592C247.95 374.484 247.004 373.452 247.004 372.215V369.818C247.004 368.784 247.672 367.876 248.652 367.551C258.779 364.163 265.887 354.766 265.887 343.083V337.004L267.709 320.012C267.743 319.55 267.889 319.117 268.135 318.744C268.557 318.104 269.27 316.948 269.933 315.519C270.888 313.46 268.99 310.996 266.703 311.319C265.504 311.489 264.077 311.547 262.348 311.463C257.352 311.219 248.403 305.212 239.87 300.596C231.335 295.98 223.635 298.015 221.136 298.956C219.141 299.708 217.544 302.964 216.982 306.217C216.749 307.563 215.588 308.463 214.202 308.36C210.06 308.054 205.597 308.59 205.942 313.879C206.342 320.058 209.249 330.532 209.466 331.981C209.476 332.038 209.462 332.089 209.466 332.144C209.495 332.445 209.512 336.965 209.524 338.385C209.627 350.356 217.168 361.185 227.734 366.107C228.572 366.497 229.103 367.34 229.103 368.264V370.23C229.103 371.63 227.904 372.729 226.508 372.607L220.491 372.081C203.708 370.613 190.1 383.031 190.1 399.817V405.424C190.1 410.567 194.031 414.854 199.152 415.305C199.152 415.305 199.711 415.379 206.375 415.936C215.79 421.96 254.326 425.669 275.227 421.96C280.933 422.917 286.008 417.9 286.008 412.08V408.208C286.008 391.421 272.402 376.622 255.616 375.155Z" fill="url(#paint15_linear_4972_11761)"/>
<mask id="mask3_4972_11761" style="mask-type:alpha" maskUnits="userSpaceOnUse" x="190" y="297" width="97" height="127">
<path d="M255.616 375.155L249.183 374.592C247.95 374.484 247.004 373.452 247.004 372.215V369.818C247.004 368.784 247.672 367.876 248.652 367.551C258.779 364.163 265.887 354.766 265.887 343.083V337.004L267.709 320.012C267.743 319.55 267.889 319.117 268.135 318.744C268.557 318.104 269.27 316.948 269.933 315.519C270.888 313.46 268.99 310.996 266.703 311.319C265.504 311.489 264.077 311.547 262.348 311.463C257.352 311.219 248.403 305.212 239.87 300.596C231.335 295.98 223.635 298.015 221.136 298.956C219.141 299.708 217.544 302.964 216.982 306.217C216.749 307.563 215.588 308.463 214.202 308.36C210.06 308.054 205.597 308.59 205.942 313.879C206.342 320.058 209.249 330.532 209.466 331.981C209.476 332.038 209.462 332.089 209.466 332.144C209.495 332.445 209.512 336.965 209.524 338.385C209.627 350.356 217.168 361.185 227.734 366.107C228.572 366.497 229.103 367.34 229.103 368.264V370.23C229.103 371.63 227.904 372.729 226.508 372.607L220.491 372.081C203.708 370.613 190.1 383.031 190.1 399.817V405.424C190.1 410.567 194.031 414.854 199.152 415.305C199.152 415.305 199.711 415.379 206.375 415.936C215.79 421.96 254.326 425.669 275.227 421.96C280.933 422.917 286.008 417.9 286.008 412.08V408.208C286.008 391.421 272.402 376.622 255.616 375.155Z" fill="url(#paint16_linear_4972_11761)"/>
</mask>
<g mask="url(#mask3_4972_11761)">
<path d="M237.812 385.295C253.96 387.497 257.385 377.649 257.079 372.45C261.055 368.474 268.455 355.752 266.253 336.667C264.29 319.647 222.128 311.63 217.133 323.191C216.769 324.036 216.014 324.71 215.11 324.881C211.632 325.538 209.987 328.46 209.368 332.997C207.166 349.146 216.403 364.193 221.296 369.698C220.073 373.979 221.663 383.093 237.812 385.295Z" fill="url(#paint17_radial_4972_11761)"/>
</g>
<path fill-rule="evenodd" clip-rule="evenodd" d="M221.961 380.865C219.674 377.851 219.296 374.462 219.467 371.99L223.129 372.245C222.995 374.164 223.308 376.568 224.885 378.646C226.439 380.695 229.446 382.72 235.297 383.469C242.49 384.391 247.072 383.706 249.895 382.165C252.582 380.7 253.937 378.31 254.342 374.985L257.985 375.429C257.473 379.631 255.618 383.224 251.653 385.387C247.825 387.476 242.315 388.068 234.83 387.11C228.299 386.273 224.27 383.908 221.961 380.865Z" fill="#824DD2"/>
<path fill-rule="evenodd" clip-rule="evenodd" d="M230.177 342.51C230.177 340.229 228.328 338.381 226.048 338.381C223.767 338.381 221.919 340.229 221.919 342.51V344.925C221.919 347.205 223.767 349.054 226.048 349.054C228.328 349.054 230.177 347.205 230.177 344.925V342.51ZM249.097 343.456C249.097 341.176 247.248 339.327 244.968 339.327C242.687 339.327 240.839 341.176 240.839 343.456V345.843C240.839 348.123 242.687 349.971 244.968 349.971C247.248 349.971 249.097 348.123 249.097 345.843V343.456Z" fill="#9F75E2"/>
<path fill-rule="evenodd" clip-rule="evenodd" d="M201.39 415.495L202.905 400.35C202.929 400.111 203.034 399.888 203.204 399.718C203.829 399.093 204.898 399.48 204.978 400.36L206.394 415.937L201.39 415.495Z" fill="#6C39B9"/>
</g>
<defs>
<filter id="filter0_ii_4972_11761" x="-30" y="-30" width="385" height="510" filterUnits="userSpaceOnUse" color-interpolation-filters="sRGB">
<feFlood flood-opacity="0" result="BackgroundImageFix"/>
<feBlend mode="normal" in="SourceGraphic" in2="BackgroundImageFix" result="shape"/>
<feColorMatrix in="SourceAlpha" type="matrix" values="0 0 0 0 0 0 0 0 0 0 0 0 0 0 0 0 0 0 127 0" result="hardAlpha"/>
<feOffset dx="-30" dy="-30"/>
<feGaussianBlur stdDeviation="45"/>
<feComposite in2="hardAlpha" operator="arithmetic" k2="-1" k3="1"/>
<feColorMatrix type="matrix" values="0 0 0 0 0 0 0 0 0 0.7 0 0 0 0 0.522308 0 0 0 1 0"/>
<feBlend mode="normal" in2="shape" result="effect1_innerShadow_4972_11761"/>
<feColorMatrix in="SourceAlpha" type="matrix" values="0 0 0 0 0 0 0 0 0 0 0 0 0 0 0 0 0 0 127 0" result="hardAlpha"/>
<feOffset dx="40" dy="40"/>
<feGaussianBlur stdDeviation="50"/>
<feComposite in2="hardAlpha" operator="arithmetic" k2="-1" k3="1"/>
<feColorMatrix type="matrix" values="0 0 0 0 1 0 0 0 0 1 0 0 0 0 1 0 0 0 0.3 0"/>
<feBlend mode="normal" in2="effect1_innerShadow_4972_11761" result="effect2_innerShadow_4972_11761"/>
</filter>
<filter id="filter1_f_4972_11761" x="41.8811" y="354.602" width="286.18" height="77.4946" filterUnits="userSpaceOnUse" color-interpolation-filters="sRGB">
<feFlood flood-opacity="0" result="BackgroundImageFix"/>
<feBlend mode="normal" in="SourceGraphic" in2="BackgroundImageFix" result="shape"/>
<feGaussianBlur stdDeviation="10.9662" result="effect1_foregroundBlur_4972_11761"/>
</filter>
<filter id="filter2_f_4972_11761" x="161.235" y="383.75" width="179.655" height="72.164" filterUnits="userSpaceOnUse" color-interpolation-filters="sRGB">
<feFlood flood-opacity="0" result="BackgroundImageFix"/>
<feBlend mode="normal" in="SourceGraphic" in2="BackgroundImageFix" result="shape"/>
<feGaussianBlur stdDeviation="14.4328" result="effect1_foregroundBlur_4972_11761"/>
</filter>
<filter id="filter3_d_4972_11761" x="56.5972" y="145.887" width="336.542" height="267.022" filterUnits="userSpaceOnUse" color-interpolation-filters="sRGB">
<feFlood flood-opacity="0" result="BackgroundImageFix"/>
<feColorMatrix in="SourceAlpha" type="matrix" values="0 0 0 0 0 0 0 0 0 0 0 0 0 0 0 0 0 0 127 0" result="hardAlpha"/>
<feOffset dx="37.4699"/>
<feGaussianBlur stdDeviation="12.49"/>
<feComposite in2="hardAlpha" operator="out"/>
<feColorMatrix type="matrix" values="0 0 0 0 0 0 0 0 0 0.433333 0 0 0 0 0.307233 0 0 0 0.25 0"/>
<feBlend mode="normal" in2="BackgroundImageFix" result="effect1_dropShadow_4972_11761"/>
<feBlend mode="normal" in="SourceGraphic" in2="effect1_dropShadow_4972_11761" result="shape"/>
</filter>
<filter id="filter4_ii_4972_11761" x="83.0874" y="192.516" width="155.725" height="171.711" filterUnits="userSpaceOnUse" color-interpolation-filters="sRGB">
<feFlood flood-opacity="0" result="BackgroundImageFix"/>
<feBlend mode="normal" in="SourceGraphic" in2="BackgroundImageFix" result="shape"/>
<feColorMatrix in="SourceAlpha" type="matrix" values="0 0 0 0 0 0 0 0 0 0 0 0 0 0 0 0 0 0 127 0" result="hardAlpha"/>
<feOffset dx="7.21642" dy="10.8246"/>
<feGaussianBlur stdDeviation="7.21642"/>
<feComposite in2="hardAlpha" operator="arithmetic" k2="-1" k3="1"/>
<feColorMatrix type="matrix" values="0 0 0 0 0.0173611 0 0 0 0 0.520833 0 0 0 0 0.396963 0 0 0 0.2 0"/>
<feBlend mode="normal" in2="shape" result="effect1_innerShadow_4972_11761"/>
<feColorMatrix in="SourceAlpha" type="matrix" values="0 0 0 0 0 0 0 0 0 0 0 0 0 0 0 0 0 0 127 0" result="hardAlpha"/>
<feOffset dx="-18.0411" dy="-10.8246"/>
<feGaussianBlur stdDeviation="10.8246"/>
<feComposite in2="hardAlpha" operator="arithmetic" k2="-1" k3="1"/>
<feColorMatrix type="matrix" values="0 0 0 0 1 0 0 0 0 1 0 0 0 0 1 0 0 0 0.25 0"/>
<feBlend mode="normal" in2="effect1_innerShadow_4972_11761" result="effect2_innerShadow_4972_11761"/>
</filter>
<filter id="filter5_f_4972_11761" x="313.425" y="356.86" width="31.5524" height="32.3829" filterUnits="userSpaceOnUse" color-interpolation-filters="sRGB">
<feFlood flood-opacity="0" result="BackgroundImageFix"/>
<feBlend mode="normal" in="SourceGraphic" in2="BackgroundImageFix" result="shape"/>
<feGaussianBlur stdDeviation="1.80411" result="effect1_foregroundBlur_4972_11761"/>
</filter>
<linearGradient id="paint0_linear_4972_11761" x1="105" y1="140.643" x2="178.905" y2="434.619" gradientUnits="userSpaceOnUse">
<stop stop-color="#00D795"/>
<stop offset="1" stop-color="#00C28F"/>
</linearGradient>
<linearGradient id="paint1_linear_4972_11761" x1="183.401" y1="167.206" x2="183.401" y2="369.809" gradientUnits="userSpaceOnUse">
<stop stop-color="#00E9AC"/>
<stop offset="1" stop-color="#009F79"/>
</linearGradient>
<radialGradient id="paint2_radial_4972_11761" cx="0" cy="0" r="1" gradientUnits="userSpaceOnUse" gradientTransform="translate(139.585 252.052) rotate(57.0948) scale(109.591 94.2828)">
<stop stop-color="white"/>
<stop offset="1" stop-color="#8CFFE3"/>
</radialGradient>
<linearGradient id="paint3_linear_4972_11761" x1="295.055" y1="367.925" x2="307.753" y2="345.312" gradientUnits="userSpaceOnUse">
<stop stop-color="#99E9B4"/>
<stop offset="1" stop-color="#4ACD9E"/>
</linearGradient>
<linearGradient id="paint4_linear_4972_11761" x1="295.383" y1="367.879" x2="308.08" y2="345.266" gradientUnits="userSpaceOnUse">
<stop stop-color="#99E9B4"/>
<stop offset="1" stop-color="#4ACD9E"/>
</linearGradient>
<linearGradient id="paint5_linear_4972_11761" x1="154.223" y1="178.837" x2="154.223" y2="375.176" gradientUnits="userSpaceOnUse">
<stop stop-color="#6DF4CB"/>
<stop offset="1" stop-color="#1BB980"/>
</linearGradient>
<linearGradient id="paint6_linear_4972_11761" x1="126.1" y1="274.192" x2="126.228" y2="318.455" gradientUnits="userSpaceOnUse">
<stop stop-color="#7CC0FF"/>
<stop offset="1" stop-color="#5992FF"/>
</linearGradient>
<linearGradient id="paint7_linear_4972_11761" x1="121.557" y1="275.604" x2="121.672" y2="316.693" gradientUnits="userSpaceOnUse">
<stop stop-color="#7DD0FF"/>
<stop offset="1" stop-color="#69AEFF"/>
</linearGradient>
<linearGradient id="paint8_linear_4972_11761" x1="153.864" y1="248.533" x2="153.864" y2="320.436" gradientUnits="userSpaceOnUse">
<stop stop-color="#FFC4A2"/>
<stop offset="1" stop-color="#FF9244"/>
</linearGradient>
<linearGradient id="paint9_linear_4972_11761" x1="146.617" y1="256.342" x2="173.171" y2="292.712" gradientUnits="userSpaceOnUse">
<stop stop-color="#FFCBAD"/>
<stop offset="1" stop-color="#FFB27A"/>
</linearGradient>
<linearGradient id="paint10_linear_4972_11761" x1="181.832" y1="235.429" x2="181.832" y2="318.885" gradientUnits="userSpaceOnUse">
<stop stop-color="#32FFCE"/>
<stop offset="1" stop-color="#00AF85"/>
</linearGradient>
<linearGradient id="paint11_linear_4972_11761" x1="177" y1="239" x2="173.643" y2="320.621" gradientUnits="userSpaceOnUse">
<stop stop-color="#69FFE7"/>
<stop offset="1" stop-color="#00D7B5"/>
</linearGradient>
<linearGradient id="paint12_linear_4972_11761" x1="250.525" y1="291.238" x2="296.531" y2="419.243" gradientUnits="userSpaceOnUse">
<stop stop-color="#B17EF2"/>
<stop offset="0.0436877" stop-color="#9A63E1"/>
<stop offset="0.11761" stop-color="#9760DF"/>
<stop offset="0.190042" stop-color="#AA75F1"/>
<stop offset="0.214947" stop-color="#9962E0"/>
<stop offset="1" stop-color="#723EC7"/>
</linearGradient>
<linearGradient id="paint13_linear_4972_11761" x1="250.525" y1="291.238" x2="250.525" y2="418.885" gradientUnits="userSpaceOnUse">
<stop stop-color="#9C65E3"/>
<stop offset="1" stop-color="#723EC7"/>
</linearGradient>
<linearGradient id="paint14_linear_4972_11761" x1="266.254" y1="331.164" x2="269.924" y2="376.122" gradientUnits="userSpaceOnUse">
<stop stop-color="#FFC6AE"/>
<stop offset="0.67935" stop-color="#F4BEA8"/>
<stop offset="0.741121" stop-color="#E2A388"/>
<stop offset="0.857181" stop-color="#E2A388"/>
<stop offset="1" stop-color="#E4916E"/>
</linearGradient>
<linearGradient id="paint15_linear_4972_11761" x1="238.054" y1="297.689" x2="238.054" y2="422.21" gradientUnits="userSpaceOnUse">
<stop stop-color="#B587EF"/>
<stop offset="1" stop-color="#854BE4"/>
</linearGradient>
<linearGradient id="paint16_linear_4972_11761" x1="238.054" y1="297.689" x2="238.054" y2="422.21" gradientUnits="userSpaceOnUse">
<stop stop-color="#B587EF"/>
<stop offset="1" stop-color="#854BE4"/>
</linearGradient>
<radialGradient id="paint17_radial_4972_11761" cx="0" cy="0" r="1" gradientUnits="userSpaceOnUse" gradientTransform="translate(240.563 321.987) rotate(92.4468) scale(63.682 65.5544)">
<stop stop-color="#FFECE4"/>
<stop offset="0.725231" stop-color="#FFD2BF"/>
<stop offset="0.732438" stop-color="#F0B39A"/>
<stop offset="1" stop-color="#F0B39A"/>
</radialGradient>
<clipPath id="clip0_4972_11761">
<path d="M28 142H315V390C315 417.614 292.614 440 265 440H28V142Z" fill="white"/>
</clipPath>
<clipPath id="clip1_4972_11761">
<rect width="310.306" height="241.75" fill="white" transform="translate(42.1641 156.433)"/>
</clipPath>
</defs>
</svg>
